<?xml version="1.0" encoding="UTF-8" standalone="no"?>
<svg width="1724px" height="805px" viewBox="0 0 1724 805" version="1.1" xmlns="http://www.w3.org/2000/svg" xmlns:xlink="http://www.w3.org/1999/xlink" xmlns:sketch="http://www.bohemiancoding.com/sketch/ns">
    <!-- Generator: Sketch 3.3.3 (12081) - http://www.bohemiancoding.com/sketch -->
    <title>Group</title>
    <desc>A low poly render of Golden Gate Bridge in San Fransico, CA. Created by John Domingo using Sketch 3 and Illustrator CC.</desc>
    <defs></defs>
    <g id="wind" sketch:type="MSLayerGroup" transform="translate(1.000000, 1.000000)" stroke="#FFFFFF" stroke-width="0.5" stroke-linejoin="bevel">
      <path d="M0,283.474 L0,185.193 L112.415,278.09 Z" id="path-365" fill="#B5DAED" sketch:type="MSShapeGroup"></path>
      <path d="M0,0 L0,185.192 L146.146,147.056 Z" id="path-366" fill="#C2D4E2" sketch:type="MSShapeGroup"></path>
      <path d="M146.146,147.056 L405.876,0 L0,0 Z" id="path-367" fill="#C4E5FF" sketch:type="MSShapeGroup"></path>
      <path d="M298.2,278.371 L293.968,63.605 L146.146,147.057 Z" id="path-368" fill="#C3D9E8" sketch:type="MSShapeGroup"></path>
      <path d="M293.968,63.604 L559.012,252.604 L298.2,278.371 Z" id="path-369" fill="#C4D7DE" sketch:type="MSShapeGroup"></path>
      <path d="M636.27002,33.3699989 L480.440002,123.050003 L559.012,252.604 Z" id="path-370" fill="#B9CBD7" sketch:type="MSShapeGroup"></path>
      <path d="M293.968,63.604 L559.012,252.604 L298.2,278.371 Z" id="path-371" fill="#C4D7DE" sketch:type="MSShapeGroup"></path>
      <path d="M512.409973,15.4399996 L405.876,0 L480.440002,123.046814 Z" id="path-372" fill="#CCDCE7" sketch:type="MSShapeGroup"></path>
      <path d="M636.27002,33.3699989 L512.409973,15.4399996 L480.440002,123.046814 Z" id="path-373" fill="#DBECF7" sketch:type="MSShapeGroup"></path>
      <path d="M858.640015,65.633 L636.27002,33.374939 L559.012,252.604 Z" id="path-374" fill="#C2DCEC" sketch:type="MSShapeGroup"></path>
      <path d="M559.012,252.604 L405.876,0 L293.968,63.604 Z" id="path-375" fill="#E2E7EB" sketch:type="MSShapeGroup"></path>
      <path d="M913.6,0 L405.876,0 L858.642,65.633 L913.6,0 Z" id="path-376" fill="#C1CCD6" sketch:type="MSShapeGroup"></path>
      <path d="M0,185.192 L146.146,147.056 L112.415,278.09 Z" id="path-377" fill="#D5E4EB" sketch:type="MSShapeGroup"></path>
      <path d="M146.146,147.056 L298.2,278.371 L112.414,278.09 Z" id="path-378" fill="#EEF0EF" sketch:type="MSShapeGroup"></path>
      <path d="M1217.47998,336.939299 L1223.655,458.41 L1109.169,445.185 Z" id="path-379" fill="#A7CBCB" sketch:type="MSShapeGroup"></path>
      <path d="M1131.638,306.228 L1212.529,245.368 L1070.93994,248.036 Z" id="path-380" fill="#BEDAE0" sketch:type="MSShapeGroup"></path>
      <path d="M1131.639,306.229 L1168.485,335.312 L1212.53,245.369 Z" id="path-381" fill="#DDEAEC" sketch:type="MSShapeGroup"></path>
      <path d="M1168.484,335.311 L1217.47998,336.940002 L1212.529,245.368 Z" id="path-382" fill="#CFD7D9" sketch:type="MSShapeGroup"></path>
      <path d="M858.641,65.633 L892.936536,69.7692385 L920.574,48.415 Z" id="path-383" fill="#C1DFDF" sketch:type="MSShapeGroup"></path>
      <path d="M913.599976,0 L858.640015,65.6299973 L920.570007,48.4199982 Z" id="path-384" fill="#D6EDFA" sketch:type="MSShapeGroup"></path>
      <path d="M1638.717,507.012 L1608.272,401.5 L1722,438.602 Z" id="path-385" fill="#B3CED4" sketch:type="MSShapeGroup"></path>
      <path d="M1608.272,401.5 L1445.6,482.261 L1638.717,507.012 Z" id="path-386" fill="#7F9499" sketch:type="MSShapeGroup"></path>
      <path d="M1444.13,348.977 L1445.6,482.261 L1608.273,401.5 Z" id="path-387" fill="#A5C0C3" sketch:type="MSShapeGroup"></path>
      <path d="M1444.647,399.325 L1365.773,473.682 L1445.599,482.26 Z" id="path-388" fill="#859999" sketch:type="MSShapeGroup"></path>
      <path d="M1223.655,458.41 L1365.774,473.682 L1337.13266,397.737151 Z" id="path-389" fill="#AFC1C4" sketch:type="MSShapeGroup"></path>
      <path d="M1223.654,458.41 L1336.86971,397.912455 L1220.716,396.818 Z" id="path-390" fill="#A1B5B6" sketch:type="MSShapeGroup"></path>
      <path d="M1311.186,329.12 L1378.41003,262.348563 L1444.647,399.325 Z" id="path-391" fill="#CCD4D6" sketch:type="MSShapeGroup"></path>
      <path d="M1212.529,245.368 L1336.546,243.651 L1220.716,396.818 Z" id="path-392" fill="#BDC7CA" sketch:type="MSShapeGroup"></path>
      <path d="M1311.187,329.12 L1461.38,180 L1336.546,243.651 Z" id="path-393" fill="#B7BEC1" sketch:type="MSShapeGroup"></path>
      <path d="M1722,226.015 L1444.13,348.977 L1461.38,180 Z" id="path-394" fill="#BFCFDB" sketch:type="MSShapeGroup"></path>
      <path d="M1461.38467,180 L1365.389,0 L1722,0 Z" id="path-395" fill="#DDF0F7" sketch:type="MSShapeGroup"></path>
      <path d="M1722,226.015 L1461.38,180 L1722,0 Z" id="path-396" fill="#C3EAF0" sketch:type="MSShapeGroup"></path>
      <path d="M1336.546,243.651 L1461.38,180 L1365.389,0 Z" id="path-397" fill="#DAE8EB" sketch:type="MSShapeGroup"></path>
      <path d="M1365.389,0 L1214.05005,123.389999 L1336.546,243.651 Z" id="path-398" fill="#E6F8FF" sketch:type="MSShapeGroup"></path>
      <path d="M987.27002,136.940002 L1088.346,0 L1070.945,248.036 Z" id="path-399" fill="#CCF2FF" sketch:type="MSShapeGroup"></path>
      <path d="M1378.41003,262.350006 L1461.38,180 L1444.647,399.325 Z" id="path-400" fill="#C3D9DE" sketch:type="MSShapeGroup"></path>
      <path d="M1070.93994,248.039993 L1088.346,0 L1197.53003,107.171875 Z" id="path-401" fill="#BDDBEB" sketch:type="MSShapeGroup"></path>
      <path d="M1070.93994,248.039993 L1197.53003,107.169998 L1336.546,243.651 Z" id="path-402" fill="#D1E8F5" sketch:type="MSShapeGroup"></path>
      <path d="M1365.389,0 L1226.87,0 L1214.05005,123.389999 Z" id="path-403" fill="#D9E0E6" sketch:type="MSShapeGroup"></path>
      <path d="M1226.87,0 L1088.346,0 L1214.05005,123.389999 Z" id="path-404" fill="#E4F0F5" sketch:type="MSShapeGroup"></path>
      <path d="M1444.13,348.977 L1722,226.015 L1722,438.602 Z" id="path-405" fill="#D0DADB" sketch:type="MSShapeGroup"></path>
      <path d="M1444.647,399.325 L1311.186,329.12 L1365.773,473.682 Z" id="path-406" fill="#BEC8C9" sketch:type="MSShapeGroup"></path>
      <path d="M1220.716,396.818 L1297.899,295.69 L1337.04501,397.912458 Z" id="path-407" fill="#C5CFD0" sketch:type="MSShapeGroup"></path>
      <path d="M1297.898,295.69 L1336.545,243.651 L1311.186,329.12 Z" id="path-408" fill="#A0BBC6" sketch:type="MSShapeGroup"></path>
      <path d="M1217.47998,336.940002 L1109.169,445.185 L1088.851,391.56 Z" id="path-409" fill="#B2BDBF" sketch:type="MSShapeGroup"></path>
      <path d="M164.812,293.368 L298.2,278.371 L396.546,343.362 Z" id="path-410" fill="#DDF1F9" sketch:type="MSShapeGroup"></path>
      <path d="M298.2,278.371 L559.012,252.604 L396.546,343.362 Z" id="path-411" fill="#96CED9" sketch:type="MSShapeGroup"></path>
      <path d="M855.753,137.817 L781.525,145.151 L855.159,100.892 Z" id="path-412" fill="#DBECF5" sketch:type="MSShapeGroup"></path>
      <path d="M855.753,137.817 L853.1,221.384 L781.525,145.151 Z" id="path-413" fill="#A7DBE0" sketch:type="MSShapeGroup"></path>
      <path d="M851.557,324.909 L728.684,314.664 L853.1,221.385 Z" id="path-414" fill="#E7FBFF" sketch:type="MSShapeGroup"></path>
      <path d="M851.557,324.909 L749.094,458.282 L688.974,311.368 Z" id="path-415" fill="#B8DBE2" sketch:type="MSShapeGroup"></path>
      <path d="M841.4,435.036 L797.688,395.385 L851.557,324.909 Z" id="path-416" fill="#D2E5FE" sketch:type="MSShapeGroup"></path>
      <path d="M797.688,395.385 L749.093,458.282 L841.4,435.036 Z" id="path-417" fill="#DDE7F3" sketch:type="MSShapeGroup"></path>
      <path d="M724.124,397.264 L749.093,458.282 L680.431,475.573 Z" id="path-418" fill="#DDDDDD" sketch:type="MSShapeGroup"></path>
      <path d="M630.821,418.278 L724.125,397.264 L688.974,311.368 Z" id="path-419" fill="#C9F1F9" sketch:type="MSShapeGroup"></path>
      <path d="M587.624,368.063 L688.974,311.368 L630.821,418.278 Z" id="path-420" fill="#A0CED4" sketch:type="MSShapeGroup"></path>
      <path d="M709.01,188.738 L728.684,314.663 L688.974,311.368 Z" id="path-421" fill="#ABCFE4" sketch:type="MSShapeGroup"></path>
      <path d="M688.974,311.368 L587.624,368.063 L573.79,265.646 Z" id="path-422" fill="#C5D4D9" sketch:type="MSShapeGroup"></path>
      <path d="M573.79,265.646 L587.624,368.063 L406.818,360.435 Z" id="path-423" fill="#A6B8BC" sketch:type="MSShapeGroup"></path>
      <path d="M1088.346,0 L987.27002,136.936829 L920.574,48.415 Z" id="path-424" fill="#CCD6D9" sketch:type="MSShapeGroup"></path>
      <path d="M913.6,0 L1088.346,0 L920.574,48.415 L913.6,0 Z" id="path-425" fill="#E5E8EB" sketch:type="MSShapeGroup"></path>
      <path d="M709.01,188.738 L781.525,145.152 L853.1,221.385 Z" id="path-426" fill="#ADDEF0" sketch:type="MSShapeGroup"></path>
      <path d="M728.684,314.664 L709.01001,188.738 L853.1,221.385 Z" id="path-427" fill="#D7E3E5" sketch:type="MSShapeGroup"></path>
      <path d="M688.974,311.368 L573.79,265.646 L709.011,188.738 Z" id="path-428" fill="#CAE3E9" sketch:type="MSShapeGroup"></path>
      <path d="M926.851,232.481 L962.234,181.823 L935.492,173.246 Z" id="path-429" fill="#B5CDE0" sketch:type="MSShapeGroup"></path>
      <path d="M962.233,181.824 L1013.532,233.412 L926.85,232.482 Z" id="path-430" fill="#B0CFDB" sketch:type="MSShapeGroup"></path>
      <path d="M926.851,232.481 L961.115,287.473 L1013.533,233.411 Z" id="path-431" fill="#DDE7E9" sketch:type="MSShapeGroup"></path>
      <path d="M1022.72,322.38 L961.114,287.473 L1013.532,233.412 Z" id="path-432" fill="#CDDAE5" sketch:type="MSShapeGroup"></path>
      <path d="M961.114,287.473 L925.805,328.523 L926.843,316.298 Z" id="path-433" fill="#99CFD9" sketch:type="MSShapeGroup"></path>
      <path d="M961.114,287.473 L926.85,232.481 L926.843,316.298 Z" id="path-434" fill="#B1D7DE" sketch:type="MSShapeGroup"></path>
      <path d="M925.806,328.523 L961.115,287.473 L1022.721,322.38 Z" id="path-435" fill="#B7D3D6" sketch:type="MSShapeGroup"></path>
      <path d="M970.758,386.754 L1022.721,322.379 L986.837,392.94 Z" id="path-436" fill="#9CA7AB" sketch:type="MSShapeGroup"></path>
      <path d="M986.837,392.94 L1040.626,376.199 L1022.721,322.38 Z" id="path-437" fill="#AFB9C2" sketch:type="MSShapeGroup"></path>
      <path d="M1057.321,275.089 L1095.805,303.887 L1070.026,343.095 Z" id="path-438" fill="#D5DDE9" sketch:type="MSShapeGroup"></path>
      <path d="M1022.721,322.38 L1070.027,343.095 L1057.322,275.089 Z" id="path-439" fill="#D7E1E9" sketch:type="MSShapeGroup"></path>
      <path d="M1109.88,353.86 L1095.81,303.89 L1130.563,322.567 Z" id="path-440" fill="#BED1D5" sketch:type="MSShapeGroup"></path>
      <path d="M927.419983,117.220001 L972.97998,178 L932.409973,77.5999985 Z" id="path-441" fill="#99D7F3" sketch:type="MSShapeGroup"></path>
      <path d="M724.119995,397.26001 L680.429993,475.570007 L630.820007,418.279999 Z" id="path-442" fill="#B0C1C6" sketch:type="MSShapeGroup"></path>
      <path d="M1060.5,245.339996 L972.97998,178.699997 L995.349976,160.119995 Z" id="path-443" fill="#A5D2DE" sketch:type="MSShapeGroup"></path>
      <path d="M1060.5,245.339996 L1131.29004,311.029999 L1062.03003,265.660004 Z" id="path-444" fill="#DDE2E2" sketch:type="MSShapeGroup"></path>
      <path d="M995.349976,160.121666 L972.97998,178.699997 L932.409973,77.5999985 Z" id="path-445" fill="#B4CFE7" sketch:type="MSShapeGroup"></path>
      <path d="M890.428,96.103 L909.948,116.99 L909.621,93.497 Z" id="path-446" fill="#809BAA" sketch:type="MSShapeGroup"></path>
      <path d="M890.428,96.103 L909.948,116.99 L874.255,152.743 Z" id="path-447" fill="#C1DFF2" sketch:type="MSShapeGroup"></path>
      <path d="M909.947,116.99 L908.797,146.74 L874.254,152.743 Z" id="path-448" fill="#A0C6E4" sketch:type="MSShapeGroup"></path>
      <path d="M874.971,181.79 L905.975,232.125 L907.617,181.061 Z" id="path-449" fill="#ADD5EB" sketch:type="MSShapeGroup"></path>
      <path d="M872.176,234.946 L905.975,232.125 L874.971,181.79 Z" id="path-450" fill="#C9E1FF" sketch:type="MSShapeGroup"></path>
      <path d="M882.392,263.218 L903.796,330.474 L875.752,328.517 Z" id="path-451" fill="#C9DEE2" sketch:type="MSShapeGroup"></path>
      <path d="M882.392,263.218 L874.349,269.64 L875.752,328.517 Z" id="path-452" fill="#59A7B6" sketch:type="MSShapeGroup"></path>
      <path d="M882.392,263.218 L904.349,271.355 L900.674,264.713 Z" id="path-453" fill="#A8D1D9" sketch:type="MSShapeGroup"></path>
      <path d="M903.796,330.475 L904.349,271.356 L882.392,263.219 Z" id="path-454" fill="#BDCACD" sketch:type="MSShapeGroup"></path>
      <path d="M841.4,435.036 L851.380005,433.079987 L851.557,324.909 Z" id="path-455" fill="#DBFDFF" sketch:type="MSShapeGroup"></path>
      <path d="M901.744,364.552 L902.069,359.5 L877.24,360.183 Z" id="path-456" fill="#C7D3D9" sketch:type="MSShapeGroup"></path>
      <path d="M868.2,494.479 L906.38,500.807 L885.814,476.787 Z" id="path-457" fill="#A6CBF9" sketch:type="MSShapeGroup"></path>
      <path d="M868.2,494.479 L885.015,528.238 L906.379,500.807 Z" id="path-458" fill="#83ACB5" sketch:type="MSShapeGroup"></path>
      <path d="M906.380005,535.90778 L880.553,534.316 L906.38,500.807 Z" id="path-459" fill="#7698B1" sketch:type="MSShapeGroup"></path>
      <path d="M868.280029,528.983638 L868.201,494.478 L885.016,528.237 Z" id="path-460" fill="#85C8D9" sketch:type="MSShapeGroup"></path>
      <path d="M935.491,173.246 L962.233,181.823 L924.245,142.762 Z" id="path-461" fill="#B9BEC3" sketch:type="MSShapeGroup"></path>
      <path d="M926.234314,148.1875 L926.85,232.482 L935.491,173.247 Z" id="path-462" fill="#D3DAE4" sketch:type="MSShapeGroup"></path>
      <path d="M925.806,328.523 L970.758,386.754 L1022.721,322.379 Z" id="path-463" fill="#C2CACC" sketch:type="MSShapeGroup"></path>
      <path d="M970.758,386.754 L928.411,411.148 L928.627,332.177 Z" id="path-464" fill="#BCC7C9" sketch:type="MSShapeGroup"></path>
      <path d="M970.758,386.754 L986.837,392.94 L928.411,411.148 Z" id="path-465" fill="#AEBDC0" sketch:type="MSShapeGroup"></path>
      <path d="M1057.32001,275.09 L1022.72,322.381 L1013.532,233.412 Z" id="path-466" fill="#B7CDD6" sketch:type="MSShapeGroup"></path>
      <path d="M1022.721,322.38 L1040.626,376.199 L1070.026,343.095 Z" id="path-467" fill="#AEC8C8" sketch:type="MSShapeGroup"></path>
      <path d="M1109.85938,353.828125 L1040.625,376.199 L1070.026,343.095 Z" id="path-468" fill="#C3D7DB" sketch:type="MSShapeGroup"></path>
      <path d="M1109.875,353.828124 L1070.027,343.095 L1095.806,303.887 Z" id="path-469" fill="#B6CAD2" sketch:type="MSShapeGroup"></path>
      <path d="M1168.47998,335.311 L1130.563,322.567 L1109.93005,353.780856 Z" id="path-470" fill="#ADB8BA" sketch:type="MSShapeGroup"></path>
      <path d="M873.018,98.459 L890.428,96.103 L874.254,152.743 Z" id="path-471" fill="#8AB8CD" sketch:type="MSShapeGroup"></path>
      <path d="M900.88,418.48 L877.24,360.183 L875.799,424.688 Z" id="path-472" fill="#B9DAEC" sketch:type="MSShapeGroup"></path>
      <path d="M877.23999,360.179993 L901.73999,364.549988 L900.880005,418.480011 Z" id="path-473" fill="#CCF7FF" sketch:type="MSShapeGroup"></path>
      <path d="M1060.5,245.339996 L972.97998,178.699997 L1062.03003,265.660004 Z" id="path-474" fill="#ACDBF0" sketch:type="MSShapeGroup"></path>
      <path d="M1130.56006,322.570007 L1131.29004,311.029999 L1062.03003,265.660004 Z" id="path-475" fill="#C1F4F9" sketch:type="MSShapeGroup"></path>
      <path d="M1130.56006,322.570007 L1131.29004,311.029999 L1168.47998,335.309998 Z" id="path-476" fill="#96D5EB" sketch:type="MSShapeGroup"></path>
    </g>
    <g id="sea" sketch:type="MSLayerGroup" transform="translate(1.000000, 279.000000)" stroke="#FFFFFF" stroke-width="0.5" stroke-linejoin="bevel">
      <path d="M0,105.467 L14.69,102.446 L0,48.304 Z" id="path-294" fill="#CDE5F0" sketch:type="MSShapeGroup"></path>
      <path d="M52.105,103.917 L0,48.304 L14.69,102.445 Z" id="path-295" fill="#D7E3E1" sketch:type="MSShapeGroup"></path>
      <path d="M0,48.304 L79.451,55.788 L52.105,103.916 Z" id="path-296" fill="#A8CDDB" sketch:type="MSShapeGroup"></path>
      <path d="M79.451,55.788 L195.692,121.403 L52.105,103.917 Z" id="path-297" fill="#7DA2B3" sketch:type="MSShapeGroup"></path>
      <path d="M79.451,55.788 L187.345,41.397 L131.859,85.371 Z" id="path-298" fill="#93B1BB" sketch:type="MSShapeGroup"></path>
      <path d="M195.692,121.403 L187.345,41.397 L131.859,85.371 Z" id="path-299" fill="#73AEBF" sketch:type="MSShapeGroup"></path>
      <path d="M0,19.754 L79.451,55.788 L0,48.304 Z" id="path-300" fill="#B0C4CF" sketch:type="MSShapeGroup"></path>
      <path d="M0,5.474 L112.415,0.09 L0,19.754 L0,5.474 L0,5.474 Z" id="path-301" fill="#477894" sketch:type="MSShapeGroup"></path>
      <path d="M0,19.754 L164.812,15.368 L112.414,0.09 L0,19.754 L0,19.754 Z" id="path-302" fill="#92B2C7" sketch:type="MSShapeGroup"></path>
      <path d="M112.415,0.09 L298.201,0.371 L164.813,15.369 L112.415,0.09 L112.415,0.09 Z" id="path-303" fill="#6AA1BF" sketch:type="MSShapeGroup"></path>
      <path d="M79.451,55.788 L91.614,17.572 L0,19.754 L79.451,55.788 L79.451,55.788 Z" id="path-304" fill="#CAD7E0" sketch:type="MSShapeGroup"></path>
      <path d="M91.614,17.572 L187.345,41.397 L79.451,55.788 L91.614,17.572 L91.614,17.572 Z" id="path-305" fill="#CCE0E9" sketch:type="MSShapeGroup"></path>
      <path d="M164.812,15.368 L187.344,41.397 L91.613,17.572 L164.812,15.368 L164.812,15.368 Z" id="path-306" fill="#BCDBE2" sketch:type="MSShapeGroup"></path>
      <path d="M164.812,15.368 L265.71,130.764 L396.546,65.362 L164.812,15.368 L164.812,15.368 Z" id="path-307" fill="#8DD2E9" sketch:type="MSShapeGroup"></path>
      <path d="M187.345,41.397 L195.692,121.403 L284.379,152.582 L187.345,41.397 L187.345,41.397 Z" id="path-308" fill="#8CAEB7" sketch:type="MSShapeGroup"></path>
      <path d="M396.546,65.362 L284.379,152.655 L265.71,130.763 L396.546,65.362 L396.546,65.362 Z" id="path-309" fill="#64858E" sketch:type="MSShapeGroup"></path>
      <path d="M396.546,65.362 L473.935,193.993 L398.133,192.391 L396.546,65.362 L396.546,65.362 Z" id="path-310" fill="#568B8B" sketch:type="MSShapeGroup"></path>
      <path d="M396.546,65.362 L284.379,152.722 L398.134,192.392 L396.546,65.362 L396.546,65.362 Z" id="path-311" fill="#536B74" sketch:type="MSShapeGroup"></path>
      <path d="M406.818,82.435 L587.624,90.063 L473.936,193.993" id="path-312" fill="#7CA2AC" sketch:type="MSShapeGroup"></path>
      <path d="M587.624,90.063 L529.246,186.605 L473.935,193.993 L587.624,90.063 L587.624,90.063 Z" id="path-313" fill="#517686" sketch:type="MSShapeGroup"></path>
      <path d="M585.917,198.884 L537.105,173.609 L587.624,90.064 L585.917,198.884 L585.917,198.884 Z" id="path-314" fill="#50879E" sketch:type="MSShapeGroup"></path>
      <path d="M537.105,173.608 L529.246,186.605 L569.331,190.152 L537.105,173.608 L537.105,173.608 Z" id="path-315" fill="#759DB6" sketch:type="MSShapeGroup"></path>
      <path d="M585.917,198.884 L680.431,197.573 L586.656,151.798 L585.917,198.884 L585.917,198.884 Z" id="path-316" fill="#8BA8AE" sketch:type="MSShapeGroup"></path>
      <path d="M587.624,90.063 L680.431,197.573 L586.682923,151.846903 L587.624,90.063 Z" id="path-317" fill="#B3D9E2" sketch:type="MSShapeGroup"></path>
      <path d="M1152.72998,525.000001 L1119.727,525 L1134.17,485.113 L1152.72998,525.000001 Z" id="path-318" fill="#39505A" sketch:type="MSShapeGroup"></path>
      <path d="M1211.98999,525.000001 L1152.72998,525 L1134.17,485.113 L1211.98999,525.000001 Z" id="path-319" fill="#71B3CF" sketch:type="MSShapeGroup"></path>
      <path d="M1182.41003,394.400024 L1202.91003,484.960022 L1114.85999,438.909973 L1182.41003,394.400024 Z" id="path-320" fill="#398499" sketch:type="MSShapeGroup"></path>
      <path d="M1148.81006,456.669983 L1134.17,485.114 L1114.85999,438.909973 L1148.81006,456.669983 Z" id="path-321" fill="#273F40" sketch:type="MSShapeGroup"></path>
      <path d="M1114.85999,438.909973 L1134.17,485.114 L1094.628,452.389 L1114.85999,438.909973 Z" id="path-322" fill="#08586A" sketch:type="MSShapeGroup"></path>
      <path d="M1094.628,452.389 L1113.423,489.891 L1134.17,485.114 L1094.628,452.389 L1094.628,452.389 Z" id="path-323" fill="#58B6CB" sketch:type="MSShapeGroup"></path>
      <path d="M1202.91003,484.960022 L1148.81006,456.670766 L1134.17,485.113 L1202.91003,484.960022 Z" id="path-324" fill="#5591A7" sketch:type="MSShapeGroup"></path>
      <path d="M1211.986,525 L1202.91003,484.960313 L1134.17,485.113 L1211.986,525 Z" id="path-325" fill="#4B6D87" sketch:type="MSShapeGroup"></path>
      <path d="M1114.863,438.915 L1162.695,305.808 L1182.41,394.398 L1114.863,438.915 L1114.863,438.915 Z" id="path-326" fill="#406168" sketch:type="MSShapeGroup"></path>
      <path d="M1162.695,305.808 L1114.85999,438.915 L997.896,346.386 L1162.695,305.808 Z" id="path-327" fill="#45606B" sketch:type="MSShapeGroup"></path>
      <path d="M1350.109,239.081 L1162.695,305.808 L1351.485,323.135 L1350.109,239.081 L1350.109,239.081 Z" id="path-328" fill="#6C96A7" sketch:type="MSShapeGroup"></path>
      <path d="M1133.152,227.056 L1162.695,305.808 L997.896,346.386 L1133.152,227.056 L1133.152,227.056 Z" id="path-329" fill="#5D757F" sketch:type="MSShapeGroup"></path>
      <path d="M1223.654,180.41 L1445.599,204.261 L1268.683,268.35 L1223.654,180.41 L1223.654,180.41 Z" id="path-330" fill="#80979C" sketch:type="MSShapeGroup"></path>
      <path d="M1223.654,180.41 L1268.683,268.349 L1162.695,305.807 L1223.654,180.41 L1223.654,180.41 Z" id="path-331" fill="#6E8D92" sketch:type="MSShapeGroup"></path>
      <path d="M997.896,346.385 L1132.94024,227.228701 L1004.8572,270.605 L997.896,346.385 Z" id="path-332" fill="#5E7F8B" sketch:type="MSShapeGroup"></path>
      <path d="M1134.169,485.114 L1119.728,525 L1087.523,495.979 L1134.169,485.114 Z" id="path-333" fill="#51595E" sketch:type="MSShapeGroup"></path>
      <path d="M1058.072,394.729 L1073.855,435.807 L1024.98999,432.35 L1058.072,394.729 Z" id="path-334" fill="#445F5E" sketch:type="MSShapeGroup"></path>
      <path d="M1060.32996,434.840027 L1069.748,467.303 L1090.337,436.953 L1060.32996,434.840027 Z" id="path-335" fill="#A6D4DD" sketch:type="MSShapeGroup"></path>
      <path d="M1069.748,467.303 L1060.32996,434.843689 L1044.83997,447.77002 L1069.748,467.303 Z" id="path-336" fill="#42AABD" sketch:type="MSShapeGroup"></path>
      <path d="M1044.83997,447.772628 L1060.32996,434.843689 L1024.98999,432.349976 L1044.83997,447.772628 Z" id="path-337" fill="#6BC8D9" sketch:type="MSShapeGroup"></path>
      <path d="M1053.336,478.33 L1054.93994,455.679993 L1035.732,440.612 L1053.336,478.33 Z" id="path-338" fill="#CDE1F0" sketch:type="MSShapeGroup"></path>
      <path d="M1053.336,478.33 L1069.748,467.303 L1054.93994,455.680533 L1053.336,478.33 Z" id="path-339" fill="#4B6679" sketch:type="MSShapeGroup"></path>
      <path d="M1085.20996,481.929993 L1094.628,452.389 L1113.423,489.891 L1085.20996,481.929993 Z" id="path-340" fill="#518B97" sketch:type="MSShapeGroup"></path>
      <path d="M1094.628,452.389 L1085.20996,481.932335 L1058.644,474.422 L1094.628,452.389 Z" id="path-341" fill="#19628D" sketch:type="MSShapeGroup"></path>
      <path d="M1087.523,495.979 L1113.422,489.891 L1058.643,474.422 L1087.523,495.979 L1087.523,495.979 Z" id="path-342" fill="#3E4C55" sketch:type="MSShapeGroup"></path>
      <path d="M1069.748,467.303 L1090.337,436.953 L1094.628,452.389 L1069.748,467.303 L1069.748,467.303 Z" id="path-343" fill="#ADE3EE" sketch:type="MSShapeGroup"></path>
      <path d="M1186.967,414.523 L1458.165,332.62 L1211.986,525 L1186.967,414.523 Z" id="path-344" fill="#5E7E86" sketch:type="MSShapeGroup"></path>
      <path d="M1058.113,394.56 L1114.863,438.915 L1073.855,435.807 L1058.113,394.56 L1058.113,394.56 Z" id="path-345" fill="#59877F" sketch:type="MSShapeGroup"></path>
      <path d="M1090.337,436.953 L1094.304,452.389 L1114.864,438.915 L1090.337,436.953 L1090.337,436.953 Z" id="path-346" fill="#416566" sketch:type="MSShapeGroup"></path>
      <path d="M1458.166,332.62 L1462.89,370.444 L1374.241,398.37 L1458.166,332.62 L1458.166,332.62 Z" id="path-347" fill="#284B57" sketch:type="MSShapeGroup"></path>
      <path d="M1458.166,332.62 L1522.165,335.828 L1462.89,370.444 L1458.166,332.62 L1458.166,332.62 Z" id="path-348" fill="#3E555F" sketch:type="MSShapeGroup"></path>
      <path d="M1625.588,301.468 L1638.717,229.012 L1722,320.6 L1625.588,301.468 L1625.588,301.468 Z" id="path-349" fill="#80AFB3" sketch:type="MSShapeGroup"></path>
      <path d="M1638.717,229.012 L1722,160.602 L1722,320.6 L1638.717,229.012 L1638.717,229.012 Z" id="path-350" fill="#899B9F" sketch:type="MSShapeGroup"></path>
      <path d="M1638.717,229.012 L1445.6,204.261 L1522.165,335.828 L1638.717,229.012 L1638.717,229.012 Z" id="path-351" fill="#6B8488" sketch:type="MSShapeGroup"></path>
      <path d="M1638.717,229.012 L1522.165,335.828 L1625.588,301.468 L1638.717,229.012 L1638.717,229.012 Z" id="path-352" fill="#70898D" sketch:type="MSShapeGroup"></path>
      <path d="M939.496,309.854 L997.896,346.385 L1004.859,270.605 L939.496,309.854 L939.496,309.854 Z" id="path-353" fill="#485F65" sketch:type="MSShapeGroup"></path>
      <path d="M1223.654,180.411 L1109.169,167.185 L1162.695,305.808 L1223.654,180.411 Z" id="path-354" fill="#537277" sketch:type="MSShapeGroup"></path>
      <path d="M927.772,179.409 L926.126,275.738 L1020.462,141.397 L927.772,179.409 L927.772,179.409 Z" id="path-355" fill="#5A7B82" sketch:type="MSShapeGroup"></path>
      <path d="M926.127,275.738 L939.496,309.854 L1004.859,270.605 L926.127,275.738 L926.127,275.738 Z" id="path-356" fill="#6D8090" sketch:type="MSShapeGroup"></path>
      <path d="M1004.859,270.605 L1020.463,141.397 L926.127,275.738 L1004.859,270.605 L1004.859,270.605 Z" id="path-357" fill="#3E646A" sketch:type="MSShapeGroup"></path>
      <path d="M1133.152,227.056 L1020.463,141.398 L1004.859,270.606 L1133.152,227.056 L1133.152,227.056 Z" id="path-358" fill="#7E979C" sketch:type="MSShapeGroup"></path>
      <path d="M1132.06301,226.702372 L1088.85,113.559 L1020.463,141.397 L1132.06301,226.702372 Z" id="path-359" fill="#99ACB0" sketch:type="MSShapeGroup"></path>
      <path d="M1350.109,239.081 L1445.599,204.261 L1351.485,323.135 L1350.109,239.081 L1350.109,239.081 Z" id="path-360" fill="#506C70" sketch:type="MSShapeGroup"></path>
      <path d="M1445.6,204.261 L1351.486,323.135 L1458.167,332.62 L1445.6,204.261 L1445.6,204.261 Z" id="path-361" fill="#5F787D" sketch:type="MSShapeGroup"></path>
      <path d="M1445.6,204.261 L1458.166,332.62 L1522.165,335.828 L1445.6,204.261 L1445.6,204.261 Z" id="path-362" fill="#537F8B" sketch:type="MSShapeGroup"></path>
      <path d="M1162.695,305.808 L1186.967,414.524 L1296.712,318.156 L1162.695,305.808 L1162.695,305.808 Z" id="path-363" fill="#394B57" sketch:type="MSShapeGroup"></path>
      <path d="M1296.713,318.155 L1458.166,332.62 L1186.968,414.523 L1296.713,318.155 L1296.713,318.155 Z" id="path-364" fill="#4F7786" sketch:type="MSShapeGroup"></path>
      <path d="M811.766,227.727 L850.145,206.384 L849.66,251.818 L811.766,227.727 L811.766,227.727 Z" id="path-365" fill="#78C1CA" sketch:type="MSShapeGroup"></path>
    </g>
    <g id="steel" sketch:type="MSLayerGroup" transform="translate(397.000000, 49.000000)" stroke="#FFFFFF" stroke-width="0.5" stroke-linejoin="bevel">
      <path d="M462.642,17.633 L313.01,140.738 L305.219,115.938 L462.642,17.633 L462.642,17.633 Z" id="path-115" fill="#893824" sketch:type="MSShapeGroup"></path>
      <path d="M163.012,204.604 L313.01,140.738 L305.661,115.938 L163.012,204.604 Z" id="path-116" fill="#9E3F5A" sketch:type="MSShapeGroup"></path>
      <path d="M163.012,204.604 L10.818,312.435 L313.01,140.738 L163.012,204.604 L163.012,204.604 Z" id="path-117" fill="#944443" sketch:type="MSShapeGroup"></path>
      <path d="M0.546,295.362 L163.012,204.604 L10.818,312.435 L0.546,295.362 L0.546,295.362 Z" id="path-118" fill="#5B2F2C" sketch:type="MSShapeGroup"></path>
      <path d="M462.640015,17.6300011 L459.159973,52.8899994 L313.01001,140.740005 L462.640015,17.6300011 Z" id="path-119" fill="#974F48" sketch:type="MSShapeGroup"></path>
      <path d="M496.936538,21.7692385 L537.849976,18.0064326 L524.574,0.415 L496.936538,21.7692385 Z" id="path-120" fill="#7A3B43" sketch:type="MSShapeGroup"></path>
      <path d="M528.23999,94.762 L530.070007,18.698 L520.201691,19.6573236 L528.23999,94.762 Z" id="path-121" fill="#903F44" sketch:type="MSShapeGroup"></path>
      <path d="M519.509,95.285 L528.245,94.762 L520.23187,19.6573236 L519.509,95.285 Z" id="path-122" fill="#61292C" sketch:type="MSShapeGroup"></path>
      <path d="M520.072,54.331 L520.20169,19.717682 L496.898,21.738 L520.072,54.331 Z" id="path-123" fill="#2E272E" sketch:type="MSShapeGroup"></path>
      <path d="M496.898,21.738 L459.158,52.893 L513.619,45.497 L496.898,21.738 L496.898,21.738 Z" id="path-124" fill="#3A2A37" sketch:type="MSShapeGroup"></path>
      <path d="M462.642,17.633 L496.899,21.738 L479.508,36.326 L462.642,17.633 L462.642,17.633 Z" id="path-125" fill="#482A36" sketch:type="MSShapeGroup"></path>
      <path d="M459.159973,52.893 L479.508,36.327 L462.642,17.633 L459.159973,52.893 Z" id="path-126" fill="#864951" sketch:type="MSShapeGroup"></path>
      <path d="M513.947,68.99 L520.072,54.331 L513.62,45.497 L513.947,68.99 L513.947,68.99 Z" id="path-127" fill="#93464C" sketch:type="MSShapeGroup"></path>
      <path d="M520.072,54.331 L513.947,68.99 L519.509,95.286 L520.072,54.331 L520.072,54.331 Z" id="path-128" fill="#702A2D" sketch:type="MSShapeGroup"></path>
      <path d="M513.947,68.99 L512.797,98.74 L519.509,95.285 L513.947,68.99 L513.947,68.99 Z" id="path-129" fill="#BC8488" sketch:type="MSShapeGroup"></path>
      <path d="M459.159,52.893 L477.018,50.46 L459.753,89.818 L459.159,52.893 L459.159,52.893 Z" id="path-130" fill="#5E1D1D" sketch:type="MSShapeGroup"></path>
      <path d="M477.018,50.459 L463.757,113.103 L478.254,104.743 L477.018,50.459 L477.018,50.459 Z" id="path-131" fill="#984348" sketch:type="MSShapeGroup"></path>
      <path d="M459.753,89.817 L463.757,113.103 L477.018,50.459 L459.753,89.817 L459.753,89.817 Z" id="path-132" fill="#50282B" sketch:type="MSShapeGroup"></path>
      <path d="M459.348684,105.300446 L463.76001,113.102 L459.753,89.817 L459.348684,105.300446 Z" id="path-133" fill="#483139" sketch:type="MSShapeGroup"></path>
      <path d="M459.348684,105.300446 L463.76001,113.102 L457.099976,173.380005 L459.348684,105.300446 Z" id="path-134" fill="#8B6683" sketch:type="MSShapeGroup"></path>
      <path d="M468.969971,150.279997 L478.971,133.611997 L463.76001,112.921003 L468.969971,150.279997 Z" id="path-135" fill="#746578" sketch:type="MSShapeGroup"></path>
      <path d="M478.254,104.743 L463.76001,113.100006 L478.971,133.79 L478.254,104.743 Z" id="path-136" fill="#613754" sketch:type="MSShapeGroup"></path>
      <path d="M478.971,133.79 L512.797,98.74 L478.254,104.743 L478.971,133.79 L478.971,133.79 Z" id="path-137" fill="#3B2B36" sketch:type="MSShapeGroup"></path>
      <path d="M512.797,98.74 L511.616,133.06 L489.954,122.363 L512.797,98.74 L512.797,98.74 Z" id="path-138" fill="#51394A" sketch:type="MSShapeGroup"></path>
      <path d="M489.954,122.363 L478.971,133.79 L511.617,133.061 L489.954,122.363 L489.954,122.363 Z" id="path-139" fill="#86677D" sketch:type="MSShapeGroup"></path>
      <path d="M478.971,133.79 L476.176,186.946 L467.273,153.081 L478.971,133.79 L478.971,133.79 Z" id="path-140" fill="#975B67" sketch:type="MSShapeGroup"></path>
      <path d="M519.509,95.286 L509.975,184.125 L512.797,98.74 L519.509,95.286 L519.509,95.286 Z" id="path-141" fill="#AA373B" sketch:type="MSShapeGroup"></path>
      <path d="M519.509,95.286 L521.56,140.763 L524.893,94.945 L519.509,95.286 L519.509,95.286 Z" id="path-142" fill="#3B2226" sketch:type="MSShapeGroup"></path>
      <path d="M519.509,95.286 L516.534,123.995 L516.924,181.659 L519.509,95.286 L519.509,95.286 Z" id="path-143" fill="#934350" sketch:type="MSShapeGroup"></path>
      <path d="M519.509,95.286 L516.924,181.66 L521.56,140.763 L519.509,95.286 L519.509,95.286 Z" id="path-144" fill="#703C48" sketch:type="MSShapeGroup"></path>
      <path d="M509.975,184.125 L516.924,181.659 L516.534,123.995 L509.975,184.125 L509.975,184.125 Z" id="path-145" fill="#925762" sketch:type="MSShapeGroup"></path>
      <path d="M528.246,94.762 L530.299988,100.125 L524.893,94.944 L528.246,94.762 Z" id="path-146" fill="#6C5B6E" sketch:type="MSShapeGroup"></path>
      <path d="M524.892998,94.9400024 L521.559998,140.758002 L530.299988,100.119995 L524.892998,94.9400024 Z" id="path-147" fill="#913F41" sketch:type="MSShapeGroup"></path>
      <path d="M530.85,184.481 L521.559,140.762 L530.299988,100.119995 L530.85,184.481 Z" id="path-148" fill="#BF6370" sketch:type="MSShapeGroup"></path>
      <path d="M516.924,181.659 L530.851,184.481 L521.56,140.762 L516.924,181.659 L516.924,181.659 Z" id="path-149" fill="#D06767" sketch:type="MSShapeGroup"></path>
      <path d="M468.967,150.556 L457.099976,173.385 L463.76001,113.100006 L468.967,150.556 Z" id="path-150" fill="#574458" sketch:type="MSShapeGroup"></path>
      <path d="M467.422,153.381 L466.805,187.619 L476.176,186.947 L467.422,153.381 L467.422,153.381 Z" id="path-151" fill="#6D434F" sketch:type="MSShapeGroup"></path>
      <path d="M467.572,153.381 L457.1,173.385 L465.805,255.391 L467.572,153.381 L467.572,153.381 Z" id="path-152" fill="#694646" sketch:type="MSShapeGroup"></path>
      <path d="M466.805,187.619 L509.975,184.125 L466.306,219.791 L466.805,187.619 L466.805,187.619 Z" id="path-153" fill="#493340" sketch:type="MSShapeGroup"></path>
      <path d="M473.087,214.252 L509.975,184.125 L514.719,217.478 L473.087,214.252 L473.087,214.252 Z" id="path-154" fill="#503C49" sketch:type="MSShapeGroup"></path>
      <path d="M516.924,181.659 L509.975,184.125 L514.719,217.478 L516.924,181.659 L516.924,181.659 Z" id="path-155" fill="#A84B51" sketch:type="MSShapeGroup"></path>
      <path d="M516.924,181.659 L514.719,217.478 L518.05,269.092 L516.924,181.659 L516.924,181.659 Z" id="path-156" fill="#943A46" sketch:type="MSShapeGroup"></path>
      <path d="M516.924,181.659 L525.689,183.365 L518.05,269.092 L516.924,181.659 L516.924,181.659 Z" id="path-157" fill="#74454F" sketch:type="MSShapeGroup"></path>
      <path d="M525.688,183.365 L524.901,269.248 L518.049,269.092 L525.688,183.365 L525.688,183.365 Z" id="path-158" fill="#55242A" sketch:type="MSShapeGroup"></path>
      <path d="M525.688,183.365 L530.85,184.481 L524.901,269.248 L525.688,183.365 L525.688,183.365 Z" id="path-159" fill="#883845" sketch:type="MSShapeGroup"></path>
      <path d="M524.901,269.248 L530.843,268.298 L530.85,184.481 L524.901,269.248 L524.901,269.248 Z" id="path-160" fill="#CB584C" sketch:type="MSShapeGroup"></path>
      <path d="M514.719,217.478 L514.048,269.002 L518.05,269.091 L514.719,217.478 L514.719,217.478 Z" id="path-161" fill="#75323B" sketch:type="MSShapeGroup"></path>
      <path d="M504.674,216.713 L514.521,234.512 L514.719,217.478 L504.674,216.713 L504.674,216.713 Z" id="path-162" fill="#823A46" sketch:type="MSShapeGroup"></path>
      <path d="M508.349,223.355 L507.913,271.505 L514.52,234.511 L508.349,223.355 L508.349,223.355 Z" id="path-163" fill="#402631" sketch:type="MSShapeGroup"></path>
      <path d="M507.909973,271.506 L514.049,269.003 L514.521,234.512 L507.909973,271.506 Z" id="path-164" fill="#909090" sketch:type="MSShapeGroup"></path>
      <path d="M473.087,214.252 L471.328,226.955 L486.391,215.218 L473.087,214.252 L473.087,214.252 Z" id="path-165" fill="#733133" sketch:type="MSShapeGroup"></path>
      <path d="M466.306,219.791 L473.087,214.252 L465.805,268.125 L466.306,219.791 L466.306,219.791 Z" id="path-166" fill="#5A3C4C" sketch:type="MSShapeGroup"></path>
      <path d="M471.328,226.955 L478.349,221.641 L479.752,280.518 L471.328,226.955 L471.328,226.955 Z" id="path-167" fill="#B18F95" sketch:type="MSShapeGroup"></path>
      <path d="M471.328,226.955 L470.146,280.518 L479.751,280.518 L471.328,226.955 L471.328,226.955 Z" id="path-168" fill="#B64449" sketch:type="MSShapeGroup"></path>
      <path d="M465.805,268.125 L470.147,280.518 L471.329,226.955 L465.805,268.125 L465.805,268.125 Z" id="path-169" fill="#2B1A23" sketch:type="MSShapeGroup"></path>
      <path d="M457.1,173.385 L455.558,276.909 L465.806,255.391 L457.1,173.385 L457.1,173.385 Z" id="path-170" fill="#652C35" sketch:type="MSShapeGroup"></path>
      <path d="M465.805,255.391 L455.557,276.909 L465.626,383.089 L465.805,255.391 L465.805,255.391 Z" id="path-171" fill="#4E2931" sketch:type="MSShapeGroup"></path>
      <path d="M455.380005,385.078952 L465.626,383.089 L455.557,276.909 L455.380005,385.078952 Z" id="path-172" fill="#875863" sketch:type="MSShapeGroup"></path>
      <path d="M465.805,268.125 L481.241,312.183 L465.677,347.845 L465.805,268.125 L465.805,268.125 Z" id="path-173" fill="#653A49" sketch:type="MSShapeGroup"></path>
      <path d="M479.752,280.518 L481.24,312.183 L470.146,280.518 L479.752,280.518 L479.752,280.518 Z" id="path-174" fill="#50303D" sketch:type="MSShapeGroup"></path>
      <path d="M479.752,280.518 L507.796,282.475 L481.24,312.183 L479.752,280.518 L479.752,280.518 Z" id="path-175" fill="#6F3A4C" sketch:type="MSShapeGroup"></path>
      <path d="M507.796,282.475 L506.069,311.5 L481.24,312.183 L507.796,282.475 L507.796,282.475 Z" id="path-176" fill="#68434C" sketch:type="MSShapeGroup"></path>
      <path d="M507.796,282.475 L514.048,269.003 L507.913,271.506 L507.796,282.475 L507.796,282.475 Z" id="path-177" fill-opacity="0" fill="#D8D8D8" sketch:type="MSShapeGroup"></path>
      <path d="M507.796,282.474 L511.756,331.666 L514.048,269.002 L507.796,282.474 Z" id="path-178" fill="#862F3A" sketch:type="MSShapeGroup"></path>
      <path d="M507.796,282.474 L507.909973,271.51001 L514.048,269.002 L507.796,282.474 Z" id="path-179" fill="#BC757E" sketch:type="MSShapeGroup"></path>
      <path d="M514.048,269.002 L524.757,293.761 L524.902,269.248 L514.048,269.002 L514.048,269.002 Z" id="path-180" fill="#743734" sketch:type="MSShapeGroup"></path>
      <path d="M524.901,269.248 L530.843,268.298 L524.546,343.55 L524.901,269.248 L524.901,269.248 Z" id="path-181" fill="#9E5648" sketch:type="MSShapeGroup"></path>
      <path d="M529.806,280.523 L532.627,284.178 L524.547,343.551 L529.806,280.523 L529.806,280.523 Z" id="path-182" fill="#885662" sketch:type="MSShapeGroup"></path>
      <path d="M507.796,282.475 L511.756,331.667 L505.52,320.286 L507.796,282.475 L507.796,282.475 Z" id="path-183" fill="#784553" sketch:type="MSShapeGroup"></path>
      <path d="M505.52,320.286 L504.588,393.431 L511.756,331.667 L505.52,320.286 L505.52,320.286 Z" id="path-184" fill="#633B44" sketch:type="MSShapeGroup"></path>
      <path d="M511.756,331.667 L524.385,394.366 L504.588,393.43 L511.756,331.667 L511.756,331.667 Z" id="path-185" fill="#9B3231" sketch:type="MSShapeGroup"></path>
      <path d="M514.048,269.002 L519.106,280.694 L511.756,331.667 L514.048,269.002 L514.048,269.002 Z" id="path-186" fill="#33282E" sketch:type="MSShapeGroup"></path>
      <path d="M524.384,394.366 L511.755,331.667 L519.105,280.694 L524.384,394.366 Z" id="path-187" fill="#B05856" sketch:type="MSShapeGroup"></path>
      <path d="M519.105,280.694 L524.756,293.761 L524.384,394.366 L519.105,280.694 L519.105,280.694 Z" id="path-188" fill="#4B2C34" sketch:type="MSShapeGroup"></path>
      <path d="M532.627,284.178 L532.236,388.405 L524.547,343.551 L532.627,284.178 L532.627,284.178 Z" id="path-189" fill="#C07969" sketch:type="MSShapeGroup"></path>
      <path d="M524.547,343.55 L524.385,394.366 L532.321,388.508 L524.547,343.55 L524.547,343.55 Z" id="path-190" fill="#783034" sketch:type="MSShapeGroup"></path>
      <path d="M465.676,347.845 L479.687,381.68 L481.241,312.183 L465.676,347.845 L465.676,347.845 Z" id="path-191" fill="#BA5C5F" sketch:type="MSShapeGroup"></path>
      <path d="M465.676,347.845 L465.626,383.089 L479.687,381.68 L465.676,347.845 L465.676,347.845 Z" id="path-192" fill="#7B303D" sketch:type="MSShapeGroup"></path>
      <path d="M524.385,394.366 L530.127,505.738 L532.236,388.404 L524.385,394.366 L524.385,394.366 Z" id="path-193" fill="#42242C" sketch:type="MSShapeGroup"></path>
      <path d="M415.150024,426.790009 L432.413454,421.529999 L432.248,444.828 L415.150024,426.790009 Z" id="path-194" fill="#703E3D" sketch:type="MSShapeGroup"></path>
      <path d="M432.403,421.529999 L447.179993,417.014462 L432.248,444.828 L432.403,421.529999 Z" id="path-195" fill="#6F1723" sketch:type="MSShapeGroup"></path>
      <path d="M447.179993,417.01001 L445.996,439.545 L432.248,444.828 L447.179993,417.01001 Z" id="path-196" fill="#A7888D" sketch:type="MSShapeGroup"></path>
      <path d="M447.179993,417.01001 L460.831,433.772 L445.996,439.544 L447.179993,417.01001 Z" id="path-197" fill="#A75371" sketch:type="MSShapeGroup"></path>
      <path d="M472.72998,409.21936 L460.831,433.773 L447.179993,417.01001 L472.72998,409.21936 Z" id="path-198" fill="#8B5164" sketch:type="MSShapeGroup"></path>
      <path d="M472.72998,409.220001 L472.482,429.992 L460.831,433.772 L472.72998,409.220001 Z" id="path-199" fill="#8B7B85" sketch:type="MSShapeGroup"></path>
      <path d="M472.72998,409.220001 L485.608,425.604 L472.482,429.993 L472.72998,409.220001 Z" id="path-200" fill="#B79999" sketch:type="MSShapeGroup"></path>
      <path d="M472.72998,409.220001 L484.840027,405.547485 L485.608,425.604 L472.72998,409.220001 Z" id="path-201" fill="#6B4C52" sketch:type="MSShapeGroup"></path>
      <path d="M484.840027,405.549988 L495.99,402.186 L485.608,425.604 L484.840027,405.549988 Z" id="path-202" fill="#402126" sketch:type="MSShapeGroup"></path>
      <path d="M495.99,402.186 L508.501,398.329 L507.461,417.251 L495.99,402.186 L495.99,402.186 Z" id="path-203" fill="#683C49" sketch:type="MSShapeGroup"></path>
      <path d="M495.99,402.186 L485.608,425.604 L507.461,417.25 L495.99,402.186 L495.99,402.186 Z" id="path-204" fill="#883B33" sketch:type="MSShapeGroup"></path>
      <path d="M510.38,452.807 L513.809998,415.179993 L497.529,421.039 L510.38,452.807 Z" id="path-205" fill="#793838" sketch:type="MSShapeGroup"></path>
      <path d="M489.814,428.787 L510.379,452.807 L497.528,421.039 L489.814,428.787 L489.814,428.787 Z" id="path-206" fill="#959CA2" sketch:type="MSShapeGroup"></path>
      <path d="M507.461,417.25 L513.809998,415.179993 L508.501,398.328 L507.461,417.25 Z" id="path-207" fill="#A24647" sketch:type="MSShapeGroup"></path>
      <path d="M524.385,394.366 L508.501,398.328 L504.588,393.431 L524.385,394.366 L524.385,394.366 Z" id="path-208" fill="#382832" sketch:type="MSShapeGroup"></path>
      <path d="M513.808321,415.178 L515.497,396.601 L508.501,398.329 L513.808321,415.178 Z" id="path-209" fill="#8B393E" sketch:type="MSShapeGroup"></path>
      <path d="M472.2,446.479 L454.145,436.384 L497.529,421.039 L472.2,446.479 L472.2,446.479 Z" id="path-210" fill="#524E6A" sketch:type="MSShapeGroup"></path>
      <path d="M515.497,396.601 L527.475,454.295 L510.38,452.807 L515.497,396.601 L515.497,396.601 Z" id="path-211" fill="#A55963" sketch:type="MSShapeGroup"></path>
      <path d="M515.497,396.601 L524.385,394.367 L527.475,454.296 L515.497,396.601 L515.497,396.601 Z" id="path-212" fill="#974549" sketch:type="MSShapeGroup"></path>
      <path d="M540.719971,385.34436 L531.772,409.409 L532.236,388.404 L540.719971,385.34436 Z" id="path-213" fill="#924946" sketch:type="MSShapeGroup"></path>
      <path d="M541.197,405.592 L531.772,409.409 L540.719971,385.339996 L541.197,405.592 Z" id="path-214" fill="#C46B6F" sketch:type="MSShapeGroup"></path>
      <path d="M540.719971,385.339996 L550.817,401.542 L541.197,405.592 L540.719971,385.339996 Z" id="path-215" fill="#A23F44" sketch:type="MSShapeGroup"></path>
      <path d="M540.719971,385.339996 L549.609985,382.00061 L550.817,401.541 L540.719971,385.339996 Z" id="path-216" fill="#412029" sketch:type="MSShapeGroup"></path>
      <path d="M549.609985,382 L560.280029,378.03186 L550.818,401.542 L549.609985,382 Z" id="path-217" fill="#966459" sketch:type="MSShapeGroup"></path>
      <path d="M562.53,396.884 L550.817,401.542 L560.280029,378.029999 L562.53,396.884 Z" id="path-218" fill="#B84F54" sketch:type="MSShapeGroup"></path>
      <path d="M560.280029,378.029999 L570.047,393.665 L562.53,396.884 L560.280029,378.029999 Z" id="path-219" fill="#96333A" sketch:type="MSShapeGroup"></path>
      <path d="M576.190002,372.172485 L570.047,393.665 L560.280029,378.029999 L576.190002,372.172485 Z" id="path-220" fill="#32222F" sketch:type="MSShapeGroup"></path>
      <path d="M576.190002,372.170013 L576.572,390.875 L570.047,393.665 L576.190002,372.170013 Z" id="path-221" fill="#C69493" sketch:type="MSShapeGroup"></path>
      <path d="M585.574,387.634 L576.572,390.874 L576.190002,372.170013 L585.574,387.634 Z" id="path-222" fill="#A3262E" sketch:type="MSShapeGroup"></path>
      <path d="M594.440002,365.41373 L585.574,387.634 L576.190002,372.170013 L594.440002,365.41373 Z" id="path-223" fill="#946973" sketch:type="MSShapeGroup"></path>
      <path d="M593.856,383.922 L585.575,387.635 L594.440002,365.410004 L593.856,383.922 Z" id="path-224" fill="#863B40" sketch:type="MSShapeGroup"></path>
      <path d="M603.239,380.209 L593.855,383.922 L594.440002,365.410004 L603.239,380.209 Z" id="path-225" fill="#B2635C" sketch:type="MSShapeGroup"></path>
      <path d="M594.440002,365.410004 L603.23999,362.18811 L603.239,380.209 L594.440002,365.410004 Z" id="path-226" fill="#493443" sketch:type="MSShapeGroup"></path>
      <path d="M603.23999,362.190002 L613.119995,358.516235 L603.239,380.209 L603.23999,362.190002 Z" id="path-227" fill="#7B595E" sketch:type="MSShapeGroup"></path>
      <path d="M613.119995,358.519989 L624.463,371.398 L603.239,380.21 L613.119995,358.519989 Z" id="path-228" fill="#963A3D" sketch:type="MSShapeGroup"></path>
      <path d="M613.119995,358.519989 L625.080017,354.109985 L624.463,371.398 L613.119995,358.519989 Z" id="path-229" fill="#462329" sketch:type="MSShapeGroup"></path>
      <path d="M625.080017,354.109985 L632.410034,351.40686 L624.463,371.398 L625.080017,354.109985 Z" id="path-230" fill="#69404E" sketch:type="MSShapeGroup"></path>
      <path d="M632.410034,351.410004 L640.932,364.907 L624.462,371.398 L632.410034,351.410004 Z" id="path-231" fill="#723E4D" sketch:type="MSShapeGroup"></path>
      <path d="M632.410034,351.410004 L642.280029,347.792007 L640.932,364.907 L632.410034,351.410004 Z" id="path-232" fill="#634254" sketch:type="MSShapeGroup"></path>
      <path d="M642.280029,347.790009 L652.439,360.339 L640.932,364.907 L642.280029,347.790009 Z" id="path-233" fill="#B67E7F" sketch:type="MSShapeGroup"></path>
      <path d="M642.280029,347.790009 L653.160034,343.73999 L652.439,360.338 L642.280029,347.790009 Z" id="path-234" fill="#6F4050" sketch:type="MSShapeGroup"></path>
      <path d="M653.160034,343.73999 L663.5,339.938935 L652.439,360.338 L653.160034,343.73999 Z" id="path-235" fill="#3D2831" sketch:type="MSShapeGroup"></path>
      <path d="M663.5,339.940002 L677.734,349.618 L652.439,360.338 L663.5,339.940002 Z" id="path-236" fill="#93727D" sketch:type="MSShapeGroup"></path>
      <path d="M690.339966,330.010314 L677.735,349.618 L663.5,339.940002 L690.339966,330.010314 Z" id="path-237" fill="#4F384C" sketch:type="MSShapeGroup"></path>
      <path d="M690.339966,330.01001 L677.735,349.619 L692.851,343.56 L690.339966,330.01001 Z" id="path-238" fill="#93838D" sketch:type="MSShapeGroup"></path>
      <path d="M690.339966,330.01001 L709.563,336.132 L692.851,343.56 L690.339966,330.01001 Z" id="path-239" fill="#B39593" sketch:type="MSShapeGroup"></path>
      <path d="M690.339966,330.01001 L708.050049,323.467651 L709.562,336.132 L690.339966,330.01001 Z" id="path-240" fill="#877283" sketch:type="MSShapeGroup"></path>
      <path d="M723.030029,317.93811 L708.050049,323.470001 L709.562,336.131 L723.030029,317.93811 Z" id="path-241" fill="#9F999C" sketch:type="MSShapeGroup"></path>
      <path d="M723.030029,317.940002 L709.563,336.131 L723.735,330.244 L723.030029,317.940002 Z" id="path-242" fill="#C4634F" sketch:type="MSShapeGroup"></path>
      <path d="M745.800049,320.984375 L723.735,330.245 L723.030029,317.940002 L745.800049,320.984375 Z" id="path-243" fill="#784A61" sketch:type="MSShapeGroup"></path>
      <path d="M723.030029,317.940002 L761.726,303.801 L745.800049,320.980011 L723.030029,317.940002 Z" id="path-244" fill="#565076" sketch:type="MSShapeGroup"></path>
      <path d="M745.800049,320.980011 L762.26001,303.445 L821.47998,288.940002 L745.800049,320.980011 Z" id="path-245" fill="#066D87" sketch:type="MSShapeGroup"></path>
      <path d="M762.26001,303.450012 L532.236,388.404 L590.840027,344.399994 L762.26001,303.450012 Z" id="path-246" fill="#4A4A52" sketch:type="MSShapeGroup"></path>
      <path d="M762.26001,303.450012 L713.930054,305.779999 L590.840027,344.399994 L762.26001,303.450012 Z" id="path-247" fill="#D6D7A8" sketch:type="MSShapeGroup"></path>
      <path d="M590.840027,344.940002 L532.236,388.404 L532.411,363.148 L590.840027,344.940002 Z" id="path-248" fill="#64849E" sketch:type="MSShapeGroup"></path>
      <path d="M761.76737,303.839151 L821.47998,288.940002 L772.484,287.311 L761.76737,303.839151 Z" id="path-249" fill="#7B92A0" sketch:type="MSShapeGroup"></path>
      <path d="M445.4,387.036 L504.588,393.431 L284.431,427.574 L445.4,387.036 L445.4,387.036 Z" id="path-250" fill="#61777D" sketch:type="MSShapeGroup"></path>
      <path d="M352.615,426.436 L284.431,427.574 L504.588,393.431 L352.615,426.436 L352.615,426.436 Z" id="path-251" fill="#292B37" sketch:type="MSShapeGroup"></path>
      <path d="M392.749,428.479 L398.969,431.715 L504.588,393.431 L392.749,428.479 L392.749,428.479 Z" id="path-252" fill="#922F2B" sketch:type="MSShapeGroup"></path>
      <path d="M392.749,428.479 L352.615,426.436 L504.588,393.431 L392.749,428.479 L392.749,428.479 Z" id="path-253" fill="#BA9F8F" sketch:type="MSShapeGroup"></path>
      <path d="M398.969971,431.709991 L504.588,393.431 L508.501,398.328 L398.969971,431.709991 Z" id="path-254" fill="#7D414B" sketch:type="MSShapeGroup"></path>
      <path d="M445.4,387.036 L445.4,387.036 L457.143,388.305 L445.4,387.036 L445.4,387.036 Z" id="path-255" fill-opacity="0" fill="#D8D8D8" sketch:type="MSShapeGroup"></path>
      <path d="M479.687,381.68 L504.88,370.481 L504.588,393.431 L479.687,381.68 L479.687,381.68 Z" id="path-256" fill="#926F6F" sketch:type="MSShapeGroup"></path>
      <path d="M479.799,376.688 L504.88,370.481 L479.687,381.68 L479.799,376.688 L479.799,376.688 Z" id="path-257" fill="#63585C" sketch:type="MSShapeGroup"></path>
      <path d="M488.997,391.737 L465.627,383.09 L479.687,381.68 L488.997,391.737 Z" id="path-258" fill="#32394D" sketch:type="MSShapeGroup"></path>
      <path d="M479.687,381.68 L488.997,391.737 L504.589,393.431 L479.687,381.68 L479.687,381.68 Z" id="path-259" fill="#3D4045" sketch:type="MSShapeGroup"></path>
      <path d="M457.1,173.385 L457.1,173.385 L455.558,276.909 L457.1,173.385 L457.1,173.385 Z" id="path-260" fill-opacity="0" fill="#D8D8D8" sketch:type="MSShapeGroup"></path>
      <path d="M735.290039,263.029999 L735.638,258.229 L772.484,287.312 L735.290039,263.029999 Z" id="path-261" fill="#782121" sketch:type="MSShapeGroup"></path>
      <path d="M699.805,255.887 L666.030029,217.660004 L734.560059,274.567 L699.805,255.887 Z" id="path-262" fill="#2E3049" sketch:type="MSShapeGroup"></path>
      <path d="M735.638,258.229 L674.944,200.037 L735.290039,263.030256 L735.638,258.229 Z" id="path-263" fill="#764C60" sketch:type="MSShapeGroup"></path>
      <path d="M666.030029,217.660004 L699.805,255.887 L661.321,227.089 L666.030029,217.660004 Z" id="path-264" fill="#843623" sketch:type="MSShapeGroup"></path>
      <path d="M664.5,197.339996 L674.944,200.036 L735.290039,263.029999 L664.5,197.339996 Z" id="path-265" fill="#BC4040" sketch:type="MSShapeGroup"></path>
      <path d="M617.530029,185.411 L661.320007,227.089996 L666.030029,217.656861 L617.530029,185.411 Z" id="path-266" fill="#682828" sketch:type="MSShapeGroup"></path>
      <path d="M528.245,94.763 L531.423818,69.2234436 L617.532,185.412 L528.245,94.763 Z" id="path-267" fill="#872D2D" sketch:type="MSShapeGroup"></path>
      <path d="M537.849976,18.0099983 C537.849976,18.0099983 533.577729,52.1453634 531.441606,69.213046 C531.440398,69.2226931 528.23999,94.762 528.23999,94.762 L530.070007,18.698 L537.849976,18.0099983 Z" id="path-268" fill="#AA6666" sketch:type="MSShapeGroup"></path>
      <path d="M617.530029,185.410004 L666.030029,217.660004 L576.97998,130.703735 L617.530029,185.410004 Z" id="path-269" fill="#58171A" sketch:type="MSShapeGroup"></path>
      <path d="M772.47998,287.309998 L761.77002,303.839996 L713.930054,305.779999 L772.47998,287.309998 Z" id="path-270" fill="#B7B3C9" sketch:type="MSShapeGroup"></path>
      <path d="M465.630005,383.089996 L445.400024,387.040009 L489,391.73999 L465.630005,383.089996 Z" id="path-271" fill="#5C5C90" sketch:type="MSShapeGroup"></path>
      <path id="path-272" fill-opacity="0" fill="#D8D8D8" sketch:type="MSShapeGroup" d="M824.716,348.818 L942.014,349.281 L824.716,348.818 L824.716,348.818 Z"></path>
      <path d="M537.849976,18.0099983 L674.944,200.037 L664.5,197.344364 L537.849976,18.0099983 Z" id="path-273" fill="#754751" sketch:type="MSShapeGroup"></path>
      <path d="M664.5,197.339996 L536.409973,29.6046724 L537.849976,18.0099983 L664.5,197.339996 Z" id="path-274" fill="#530000" sketch:type="MSShapeGroup"></path>
      <path d="M415.150024,426.790009 L415.379,450.736 L432.248,444.828 L415.150024,426.790009 Z" id="path-275" fill="#5E4759" sketch:type="MSShapeGroup"></path>
      <path d="M392.749,428.478 L389.827,449.21 L367.491396,435.529334 L392.749,428.478 Z" id="path-276" fill="#904B48" sketch:type="MSShapeGroup"></path>
      <path d="M392.749,428.479 L389.827,449.211 L397.02,457.378 L392.749,428.479 L392.749,428.479 Z" id="path-277" fill="#593745" sketch:type="MSShapeGroup"></path>
      <path d="M392.749,428.479 L398.969,431.715 L397.019,457.378 L392.749,428.479 L392.749,428.479 Z" id="path-278" fill="#664550" sketch:type="MSShapeGroup"></path>
      <path d="M415.150024,426.789129 L415.766,457.727 L398.969,431.715 L415.150024,426.789129 Z" id="path-279" fill="#BE6A7A" sketch:type="MSShapeGroup"></path>
      <path d="M401.22,462.637 L415.766,457.727 L398.969,431.715 L401.22,462.637 L401.22,462.637 Z" id="path-280" fill="#B55860" sketch:type="MSShapeGroup"></path>
      <path d="M401.22,462.637 L397.019,457.378 L398.969,431.715 L401.22,462.637 L401.22,462.637 Z" id="path-281" fill="#9E2A35" sketch:type="MSShapeGroup"></path>
      <path d="M415.766,457.727 L454.145,436.384 L415.378,450.737 L415.766,457.727 L415.766,457.727 Z" id="path-282" fill="#631E1E" sketch:type="MSShapeGroup"></path>
      <path d="M472.2,446.479 L453.954,463.645 L454.145,436.384 L472.2,446.479 L472.2,446.479 Z" id="path-283" fill="#723840" sketch:type="MSShapeGroup"></path>
      <path d="M510.380005,524.699 L484.553,486.316 L510.380005,487.909973 L510.380005,524.699 Z" id="path-284" fill="#B34747" sketch:type="MSShapeGroup"></path>
      <path d="M484.553,486.315 L453.66,481.817 L503.893,515.107 L484.553,486.315 L484.553,486.315 Z" id="path-285" fill="#4C3131" sketch:type="MSShapeGroup"></path>
      <path d="M472.2,446.479 L453.66,481.818 L453.954,463.645 L472.2,446.479 L472.2,446.479 Z" id="path-286" fill="#5A2929" sketch:type="MSShapeGroup"></path>
      <path d="M453.661,481.817 L472.201,446.478 L472.280029,480.97998 L453.661,481.817 Z" id="path-287" fill="#886470" sketch:type="MSShapeGroup"></path>
      <path d="M489.016,480.237 L453.661,481.817 L484.554,486.315 L489.016,480.237 L489.016,480.237 Z" id="path-288" fill="#8D949A" sketch:type="MSShapeGroup"></path>
      <path d="M510.380005,452.809998 L510.38,524.698 L515.924,527.25 L510.380005,452.809998 Z" id="path-289" fill="#B36C75" sketch:type="MSShapeGroup"></path>
      <path d="M527.475,454.295 L515.924,527.25 L530.127,505.738 L527.475,454.295 L527.475,454.295 Z" id="path-290" fill="#71393B" sketch:type="MSShapeGroup"></path>
      <path d="M515.924,527.25 L527.475,454.295 L510.38,452.807 L515.924,527.25 Z" id="path-291" fill="#9A1926" sketch:type="MSShapeGroup"></path>
      <path d="M352.615,426.435 L392.749,428.478 L367.491396,435.529335 L352.615,426.435 Z" id="path-292" fill="#765E52" sketch:type="MSShapeGroup"></path>
      <path d="M530.127,505.738 L515.924,527.25 L543.496,539.854 L530.127,505.738 L530.127,505.738 Z" id="path-293" fill="#BF6859" sketch:type="MSShapeGroup"></path>
    </g>
    <g id="land" sketch:type="MSLayerGroup" transform="translate(1.000000, 381.000000)" stroke="#FFFFFF" stroke-width="0.5" stroke-linejoin="bevel">
      <path d="M0,49.234 L108.365,109.448 L0,3.467 L0,49.234 Z" id="path-1" fill="#352821" sketch:type="MSShapeGroup"></path>
      <path d="M0,49.296 L0,76.812 L30.818,81.074 L67.681,86.538 L0,49.296 L0,49.296 Z" id="path-2" fill="#5B6B51" sketch:type="MSShapeGroup"></path>
      <path d="M0,76.812 L87.484,148.491 L106.235,129.992 L0,76.812 L0,76.812 Z" id="path-3" fill="#AC7E68" sketch:type="MSShapeGroup"></path>
      <path d="M0,76.812 L67.682,86.538 L83.038,118.38 L0,76.812 L0,76.812 Z" id="path-4" fill="#778764" sketch:type="MSShapeGroup"></path>
      <path d="M0,76.812 L0,179.134 C24.67,170.135 87.484,148.49 87.484,148.49 L0,76.812 L0,76.812 Z" id="path-5" fill="#418027" sketch:type="MSShapeGroup"></path>
      <path d="M96.161,124.822 L141.575,148.113 L108.365,109.447 L96.161,124.822 Z" id="path-6" fill="#3E3E3E" sketch:type="MSShapeGroup"></path>
      <path d="M199.341,294.259 L87.484,148.49 L87.3000031,229.539978 L199.341,294.259 Z" id="path-7" fill="#416D2F" sketch:type="MSShapeGroup"></path>
      <path d="M87.3016815,229.539978 L87.484,148.49 L0,179.134 L87.3016815,229.539978 Z" id="path-8" fill="#163E06" sketch:type="MSShapeGroup"></path>
      <path d="M106.235,129.991 L210.249,183.328 L87.484,148.49 L106.235,129.991 L106.235,129.991 Z" id="path-9" fill="#386B23" sketch:type="MSShapeGroup"></path>
      <path d="M199.341,294.259 L87.484,148.49 L210.249,183.328 L199.341,294.259 L199.341,294.259 Z" id="path-10" fill="#234A12" sketch:type="MSShapeGroup"></path>
      <path d="M288.002,385.471 L71.952,371.787 L152.720001,288.530029 L288.002,385.471 Z" id="path-11" fill="#5E3327" sketch:type="MSShapeGroup"></path>
      <path d="M152.720001,288.531247 L71.952,371.787 L38.5499992,282.359985 L152.720001,288.531247 Z" id="path-12" fill="#502B21" sketch:type="MSShapeGroup"></path>
      <path d="M152.720001,288.531247 L38.5499992,282.359372 L0,179.134 L152.720001,288.531247 Z" id="path-13" fill="#864836" sketch:type="MSShapeGroup"></path>
      <path d="M0,321.349976 L71.952,371.787 L0,179.134 L0,321.349976 Z" id="path-14" fill="#321E18" sketch:type="MSShapeGroup"></path>
      <path d="M0,423 L71.952,371.787 L0,321.349976 L0,423 Z" id="path-15" fill="#6B4A40" sketch:type="MSShapeGroup"></path>
      <path d="M71.952,371.787 L341.18,423 L0,423 L71.952,371.787 Z" id="path-16" fill="#432016" sketch:type="MSShapeGroup"></path>
      <path d="M288.002,385.471 L341.18,423 L71.952,371.787 L288.002,385.471 L288.002,385.471 Z" id="path-17" fill="#95903E" sketch:type="MSShapeGroup"></path>
      <path d="M199.341,294.259 L248.606,357.245 L0,179.134 L199.341,294.259 Z" id="path-18" fill="#7D3620" sketch:type="MSShapeGroup"></path>
      <path d="M341.18,423 L344.88,384.241 L248.605,357.245 L341.18,423 Z" id="path-19" fill="#2F290D" sketch:type="MSShapeGroup"></path>
      <path d="M407.824,423 L309.040009,303.159973 L199.341,294.259 L407.824,423 Z" id="path-20" fill="#4C4626" sketch:type="MSShapeGroup"></path>
      <path d="M309.040009,303.159973 L271.450012,257.659973 L199.341,294.259 L309.040009,303.159973 Z" id="path-21" fill="#1F3E12" sketch:type="MSShapeGroup"></path>
      <path d="M0,3.467 L14.69,0.446 L108.364,109.448 L0,3.467 L0,3.467 Z" id="path-22" fill="#684B3D" sketch:type="MSShapeGroup"></path>
      <path d="M52.105,1.916 L201.300003,86.730011 L21.769,8.626 L52.105,1.916 Z" id="path-23" fill="#292E31" sketch:type="MSShapeGroup"></path>
      <path d="M201.300003,86.730011 L210.249,183.328 L141.575,148.113 L201.300003,86.730011 Z" id="path-24" fill="#55443D" sketch:type="MSShapeGroup"></path>
      <path d="M290.269989,178.640015 L388.418,298.705 L258.190002,214.390015 L290.269989,178.640015 Z" id="path-25" fill="#3C3734" sketch:type="MSShapeGroup"></path>
      <path d="M108.360001,109.450012 L201.300003,86.730011 L21.769,8.626 L108.360001,109.450012 Z" id="path-26" fill="#304922" sketch:type="MSShapeGroup"></path>
      <path d="M195.691,19.403 L201.300003,86.730011 L52.105,1.917 L195.691,19.403 Z" id="path-27" fill="#7D5700" sketch:type="MSShapeGroup"></path>
      <path d="M398.134,90.392 L195.692,19.403 L199.536,67.646 L398.134,90.392 Z" id="path-28" fill="#614A15" sketch:type="MSShapeGroup"></path>
      <path d="M356.329987,190 L388.418,298.705 L290.269,178.639 L356.329987,190 Z" id="path-29" fill="#554138" sketch:type="MSShapeGroup"></path>
      <path d="M290.269989,178.640015 L258.190002,214.390564 L210.249,183.328 L290.269989,178.640015 Z" id="path-30" fill="#4E3A31" sketch:type="MSShapeGroup"></path>
      <path d="M356.329987,190 L290.269,178.639 L398.134,90.392 L356.329987,190 Z" id="path-31" fill="#4C3327" sketch:type="MSShapeGroup"></path>
      <path d="M290.269989,178.639 L290.269989,78.5 L398.134,90.392 L290.269989,178.639 Z" id="path-32" fill="#80503B" sketch:type="MSShapeGroup"></path>
      <path d="M309.040009,303.159973 L388.418,298.705 L210.249,183.328 L309.040009,303.159973 Z" id="path-33" fill="#458B28" sketch:type="MSShapeGroup"></path>
      <path d="M271.450012,257.656186 L210.249,183.328 L199.341,294.259 L271.450012,257.656186 Z" id="path-34" fill="#2E5F19" sketch:type="MSShapeGroup"></path>
      <path d="M199.536,67.645 L290.269989,178.640015 L210.249,183.328 L199.536,67.645 Z" id="path-35" fill="#6A554B" sketch:type="MSShapeGroup"></path>
      <path d="M407.824,423 L388.418,298.705 L309.040009,303.163999 L407.824,423 Z" id="path-36" fill="#26220A" sketch:type="MSShapeGroup"></path>
      <path d="M440.450012,205.619995 L569.051,120.273 L462.777,266.298 L440.450012,205.619995 Z" id="path-37" fill="#472C21" sketch:type="MSShapeGroup"></path>
      <path d="M481.700012,317.880005 L388.418,298.705 L520.362,423 L481.700012,317.880005 Z" id="path-38" fill="#471C08" sketch:type="MSShapeGroup"></path>
      <path d="M452.670013,238.890015 L388.418,298.705 L481.700012,317.878304 L452.670013,238.890015 Z" id="path-39" fill="#612307" sketch:type="MSShapeGroup"></path>
      <path d="M356.329987,190 L452.670013,238.887453 L424.890015,163.23999 L356.329987,190 Z" id="path-40" fill="#663A26" sketch:type="MSShapeGroup"></path>
      <path d="M611.640632,283.843686 L462.777,266.298 L594.309998,217.299988 L611.640632,283.843686 Z" id="path-41" fill="#472C21" sketch:type="MSShapeGroup"></path>
      <path d="M356.329987,190 L424.890015,163.235384 L398.134,90.392 L356.329987,190 Z" id="path-42" fill="#955B41" sketch:type="MSShapeGroup"></path>
      <path d="M388.418,298.705 L452.670013,238.887453 L356.329987,190 L388.418,298.705 Z" id="path-43" fill="#744E3D" sketch:type="MSShapeGroup"></path>
      <path d="M575.119995,361.690002 L520.362,423 L539.799988,331.690002 L575.119995,361.690002 Z" id="path-44" fill="#402F40" sketch:type="MSShapeGroup"></path>
      <path d="M539.799988,331.690002 L520.362,423 L462.777,266.298 L539.799988,331.690002 Z" id="path-45" fill="#514151" sketch:type="MSShapeGroup"></path>
      <path d="M748.615,94.435 L673.619995,176.940002 L607.968689,107.609314 L748.615,94.435 Z" id="path-46" fill="#51351E" sketch:type="MSShapeGroup"></path>
      <path d="M634.751,135.979 L594.309998,217.299988 L569.051,120.272 L634.751,135.979 Z" id="path-47" fill="#51362B" sketch:type="MSShapeGroup"></path>
      <path d="M881.992,423 L647.291,423 L787.650024,327.640015 L881.992,423 Z" id="path-48" fill="#3E261C" sketch:type="MSShapeGroup"></path>
      <path d="M785.826,117.211 L673.619995,176.937442 L748.615,94.436 L785.826,117.211 Z" id="path-49" fill="#554F25" sketch:type="MSShapeGroup"></path>
      <path d="M785.827,117.211 L673.619995,176.940002 L704.119874,209.166986 L785.827,117.211 Z" id="path-50" fill="#614E3D" sketch:type="MSShapeGroup"></path>
      <path d="M704.021136,209.166986 L855.43,200.418 L785.826,117.211 L704.021136,209.166986 Z" id="path-51" fill="#554F25" sketch:type="MSShapeGroup"></path>
      <path d="M728.358,207.453 L855.431,200.418 L711.73999,251.619995 L728.358,207.453 Z" id="path-52" fill="#8E5B2F" sketch:type="MSShapeGroup"></path>
      <path d="M881.992,423 L711.73999,251.619995 L855.431,200.418 L881.992,423 Z" id="path-53" fill="#826247" sketch:type="MSShapeGroup"></path>
      <path d="M946.166,324.673 L1059.457,423 L1017.969,423 L946.166,324.673 L946.166,324.673 Z" id="path-54" fill="#936A47" sketch:type="MSShapeGroup"></path>
      <path d="M797.22,130.637 L811.766,125.727 L855.431,200.418 L797.22,130.637 L797.22,130.637 Z" id="path-55" fill="#554F25" sketch:type="MSShapeGroup"></path>
      <path d="M811.766,125.727 L899.893,183.108 L855.43,200.419 L811.766,125.727 L811.766,125.727 Z" id="path-56" fill="#827372" sketch:type="MSShapeGroup"></path>
      <path d="M855.431,200.418 L946.166,324.673 L1016.721,323.771 L855.431,200.418 L855.431,200.418 Z" id="path-57" fill="#63636A" sketch:type="MSShapeGroup"></path>
      <path d="M939.496,207.854 L997.896,244.385 L971.92,289.604 L939.496,207.854 L939.496,207.854 Z" id="path-58" fill="#47464B" sketch:type="MSShapeGroup"></path>
      <path d="M1024.98999,330.349976 L971.921,289.605 L997.896,244.386 L1024.98999,330.349976 Z" id="path-59" fill="#000000" sketch:type="MSShapeGroup"></path>
      <path d="M1058.072,292.479 L1011.44,287.340027 L997.896,244.386 L1058.072,292.479 Z" id="path-60" fill="#312E35" sketch:type="MSShapeGroup"></path>
      <path d="M1058.072,292.479 L1024.98999,330.35 L1011.44,287.343689 L1058.072,292.479 Z" id="path-61" fill="#5B5565" sketch:type="MSShapeGroup"></path>
      <path d="M1035.733,338.613 L992.309998,364.721 L1016.54684,323.901846 L1035.733,338.613 Z" id="path-62" fill="#38393E" sketch:type="MSShapeGroup"></path>
      <path d="M1053.336,376.33 L1027.97998,395.684 L1035.72998,338.612 L1053.336,376.33 Z" id="path-63" fill="#25252D" sketch:type="MSShapeGroup"></path>
      <path d="M1027.984,395.685 L1058.643,372.422 L1087.523,393.979 L1027.984,395.685 L1027.984,395.685 Z" id="path-64" fill="#272A31" sketch:type="MSShapeGroup"></path>
      <path d="M1027.984,395.685 L1087.523,393.979 L1059.457,423 L1027.984,395.685 L1027.984,395.685 Z" id="path-65" fill="#646C76" sketch:type="MSShapeGroup"></path>
      <path d="M473.936,91.993 L535.703,114.442 L572.787,109.377 L473.936,91.993 L473.936,91.993 Z" id="path-66" fill="#72728E" sketch:type="MSShapeGroup"></path>
      <path d="M473.936,91.993 L529.247,84.605 L572.788,109.376 L473.936,91.993 L473.936,91.993 Z" id="path-67" fill="#AB9F9F" sketch:type="MSShapeGroup"></path>
      <path d="M529.246,84.605 L569.331,88.152 L572.787,109.377 L529.246,84.605 L529.246,84.605 Z" id="path-68" fill="#C1C3A7" sketch:type="MSShapeGroup"></path>
      <path d="M569.331,88.152 L585.917,96.883 L572.787,109.376 L569.331,88.152 L569.331,88.152 Z" id="path-69" fill="#2F2A2E" sketch:type="MSShapeGroup"></path>
      <path d="M572.787,109.377 L569.051,120.273 L535.702,114.443 L572.787,109.377 L572.787,109.377 Z" id="path-70" fill="#8B8473" sketch:type="MSShapeGroup"></path>
      <path d="M572.787,109.377 L597.699,96.718 L569.052,120.273 L572.787,109.377 L572.787,109.377 Z" id="path-71" fill="#513E39" sketch:type="MSShapeGroup"></path>
      <path d="M14.69,0.445 L52.105,1.916 L21.769,8.626 L14.69,0.445 L14.69,0.445 Z" id="path-72" fill="#3D4C47" sketch:type="MSShapeGroup"></path>
      <path d="M631.190002,360.159973 L539.799988,331.690002 L647.291,423 L631.190002,360.159973 Z" id="path-73" fill="#355030" sketch:type="MSShapeGroup"></path>
      <path d="M611.641006,283.840027 L539.799988,331.690002 L631.190002,360.156189 L611.641006,283.840027 Z" id="path-74" fill="#3E2B3E" sketch:type="MSShapeGroup"></path>
      <path d="M569.051,120.273 L440.450012,205.625002 L398.134,90.392 L569.051,120.273 Z" id="path-75" fill="#55382C" sketch:type="MSShapeGroup"></path>
      <path d="M594.309998,217.299988 L462.777,266.298 L569.051,120.272 L594.309998,217.299988 Z" id="path-76" fill="#633F30" sketch:type="MSShapeGroup"></path>
      <path d="M647.291,423 L520.362,423 L575.119995,361.687439 L647.291,423 Z" id="path-77" fill="#1B131B" sketch:type="MSShapeGroup"></path>
      <path d="M611.640015,283.840027 L462.779999,266.299988 L539.799988,331.690002 L611.640015,283.840027 Z" id="path-78" fill="#474047" sketch:type="MSShapeGroup"></path>
      <path d="M248.600006,357.23999 L344.880005,384.23999 L199.339996,294.359985 L248.600006,357.23999 Z" id="path-79" fill="#49452E" sketch:type="MSShapeGroup"></path>
      <path d="M344.880005,384.23999 L341.179993,423 L407.820007,423 L344.880005,384.23999 Z" id="path-80" fill="#6F6948" sketch:type="MSShapeGroup"></path>
      <path d="M290.269989,78.0474854 L249.970001,129.279999 L199.537,67.646 L290.269989,78.0474854 Z" id="path-81" fill="#57301F" sketch:type="MSShapeGroup"></path>
      <path d="M290.269989,78.0474854 L290.269,178.639 L249.970001,129.281189 L290.269989,78.0474854 Z" id="path-82" fill="#391A0B" sketch:type="MSShapeGroup"></path>
      <path d="M67.682,86.537 L83.038,118.379 L108.365,109.447 L67.682,86.537 L67.682,86.537 Z" id="path-83" fill="#78503C" sketch:type="MSShapeGroup"></path>
      <path d="M108.365,109.447 L96.161,124.822 L83.037,118.379 L108.365,109.447 L108.365,109.447 Z" id="path-84" fill="#512B19" sketch:type="MSShapeGroup"></path>
      <path d="M141.575,148.113 L201.300003,86.734375 L108.360001,109.450012 L141.575,148.113 Z" id="path-85" fill="#1F3910" sketch:type="MSShapeGroup"></path>
      <path d="M388.418,298.705 L407.824,423 L520.362,423 L388.418,298.705 L388.418,298.705 Z" id="path-86" fill="#573729" sketch:type="MSShapeGroup"></path>
      <path d="M634.751,135.979 L597.698,96.717 L569.051,120.272 L634.751,135.979 Z" id="path-87" fill="#5B7155" sketch:type="MSShapeGroup"></path>
      <path d="M631.941,96.382 L748.615,94.436 L607.65,107.621 L631.941,96.382 Z" id="path-88" fill="#AC7F56" sketch:type="MSShapeGroup"></path>
      <path d="M704.218608,209.166988 L594.309998,217.299988 L634.751,135.979 L704.218608,209.166988 Z" id="path-89" fill="#8E6B5D" sketch:type="MSShapeGroup"></path>
      <path d="M728.357,207.453 L647.291,423 L622.830017,327.580017 L728.357,207.453 Z" id="path-90" fill="#000000" sketch:type="MSShapeGroup"></path>
      <path d="M728.357,207.453 L622.830017,327.578061 L594.309998,217.296814 L728.357,207.453 Z" id="path-91" fill="#683824" sketch:type="MSShapeGroup"></path>
      <path d="M787.650024,327.641003 L647.291,423 L711.73999,251.618605 L787.650024,327.641003 Z" id="path-92" fill="#472619" sketch:type="MSShapeGroup"></path>
      <path d="M855.431,200.418 L1017.969,423 L881.992,423 L855.431,200.418 L855.431,200.418 Z" id="path-93" fill="#6F4724" sketch:type="MSShapeGroup"></path>
      <path d="M971.921,289.604 L855.431,200.417 L899.894,183.107 L971.921,289.604 Z" id="path-94" fill="#504B48" sketch:type="MSShapeGroup"></path>
      <path d="M946.166,324.673 L992.309,364.721 L1016.721,323.771 L946.166,324.673 L946.166,324.673 Z" id="path-95" fill="#4A403F" sketch:type="MSShapeGroup"></path>
      <path d="M939.496,207.854 L930.200012,227.921812 L906.38,192.698 L939.496,207.854 Z" id="path-96" fill="#4E4D52" sketch:type="MSShapeGroup"></path>
      <path d="M930.200012,227.919983 L971.92,289.604 L939.496,207.854 L930.200012,227.919983 Z" id="path-97" fill="#414247" sketch:type="MSShapeGroup"></path>
      <path d="M1035.72998,338.609985 L1027.97998,395.679993 L992.309998,364.719971 L1035.72998,338.609985 Z" id="path-98" fill="#2F2D3A" sketch:type="MSShapeGroup"></path>
      <path d="M473.936,91.993 L487.847,106.076 L535.703,114.442 L473.936,91.993 L473.936,91.993 Z" id="path-99" fill="#565F4E" sketch:type="MSShapeGroup"></path>
      <path d="M473.936,91.993 L398.134,90.391 L487.846,106.076 L473.936,91.993 L473.936,91.993 Z" id="path-100" fill="#98AA94" sketch:type="MSShapeGroup"></path>
      <path d="M585.917,96.884 L597.698,96.718 L572.786,109.377 L585.917,96.884 L585.917,96.884 Z" id="path-101" fill="#748B90" sketch:type="MSShapeGroup"></path>
      <path d="M597.699,96.718 L607.65,107.621 L631.941,96.382 L597.699,96.718 L597.699,96.718 Z" id="path-102" fill="#537789" sketch:type="MSShapeGroup"></path>
      <path d="M1087.523,393.979 L1059.457,423 L1119.728,423 L1087.523,393.979 L1087.523,393.979 Z" id="path-103" fill="#303038" sketch:type="MSShapeGroup"></path>
      <path d="M1211.986,423 L1374.24,296.37 L1460.308,347.803 L1211.986,423 L1211.986,423 Z" id="path-104" fill="#4A5847" sketch:type="MSShapeGroup"></path>
      <path d="M1211.986,423 L1460.308,347.803 L1568.661,423 L1211.986,423 L1211.986,423 Z" id="path-105" fill="#2F3C24" sketch:type="MSShapeGroup"></path>
      <path d="M1460.309,347.803 L1593.94,312.206 L1462.89,268.444 L1460.309,347.803 L1460.309,347.803 Z" id="path-106" fill="#2D3235" sketch:type="MSShapeGroup"></path>
      <path d="M1682.688,288.565 L1722,423 L1568.661,423 L1682.688,288.565 L1682.688,288.565 Z" id="path-107" fill="#2E4E1E" sketch:type="MSShapeGroup"></path>
      <path d="M1682.688,288.565 L1722,218.6 L1722,423 L1682.688,288.565 L1682.688,288.565 Z" id="path-108" fill="#3C4234" sketch:type="MSShapeGroup"></path>
      <path d="M1593.939,312.206 L1522.165,233.828 L1462.89,268.444 L1593.939,312.206 L1593.939,312.206 Z" id="path-109" fill="#323245" sketch:type="MSShapeGroup"></path>
      <path d="M1593.939,312.206 L1625.587,199.468 L1682.687,288.566 L1593.939,312.206 L1593.939,312.206 Z" id="path-110" fill="#4B4951" sketch:type="MSShapeGroup"></path>
      <path d="M1625.588,199.468 L1722,218.6 L1682.688,288.566 L1625.588,199.468 L1625.588,199.468 Z" id="path-111" fill="#25252D" sketch:type="MSShapeGroup"></path>
      <path d="M1522.165,233.828 L1625.588,199.468 L1593.94,312.206 L1522.165,233.828 L1522.165,233.828 Z" id="path-112" fill="#2A3237" sketch:type="MSShapeGroup"></path>
      <path d="M1460.309,347.803 L1462.89,268.445 L1374.241,296.371 L1460.309,347.803 L1460.309,347.803 Z" id="path-113" fill="#313A39" sketch:type="MSShapeGroup"></path>
      <path d="M1460.309,347.803 L1682.688,288.566 L1568.661,423 L1460.309,347.803 L1460.309,347.803 Z" id="path-114" fill="#252523" sketch:type="MSShapeGroup"></path>
    </g>
</svg>
