<?xml version="1.0" standalone="no"?>
<!DOCTYPE svg PUBLIC "-//W3C//DTD SVG 1.1//EN" "http://www.w3.org/Graphics/SVG/1.1/DTD/svg11.dtd" >
<svg xmlns="http://www.w3.org/2000/svg">
<metadata></metadata>
<defs>
<font id="monoxil_regularregular" horiz-adv-x="615" >
<font-face units-per-em="1000" ascent="750" descent="-250" />
<missing-glyph horiz-adv-x="500" />
<glyph horiz-adv-x="0" />
<glyph horiz-adv-x="333" />
<glyph unicode=" " />
<glyph unicode="!" d="M373 55q0 -27 -19 -46t-46 -19t-46 19t-19 46t19 46t46 19t46 -19t19 -46zM330 243h-44v431h44v-431z" />
<glyph unicode="&#x22;" d="M254 533h-44v217h44v-217zM405 533h-44v217h44v-217z" />
<glyph unicode="#" d="M115 498h102l37 180l43 -8l-35 -172h125l37 180l43 -8l-35 -172h82v-43h-91l-43 -208h88v-44h-97l-42 -207l-42 9l40 198h-126l-42 -207l-42 9l40 198h-87v44h96l42 208h-93v43zM253 455l-43 -208h126l42 208h-125z" />
<glyph unicode="$" d="M319 -120h-43v101q-115 10 -172 95l38 22q53 -74 155 -74q64 0 100.5 32t36.5 77q0 50 -30.5 92.5t-74 75t-87.5 65t-74.5 78t-30.5 99.5q0 58 37.5 98.5t101.5 49.5v103h43v-100q85 -4 150 -59l-31 -30q-51 45 -128 45q-53 0 -91.5 -27t-38.5 -80q0 -33 16.5 -63 t42.5 -54t57.5 -47.5t63.5 -48.5t58 -52.5t42.5 -65t16.5 -79.5q0 -60 -44 -102.5t-114 -49.5v-101z" />
<glyph unicode="%" d="M256 549q0 40 -23 68.5t-55 28.5t-54.5 -28.5t-22.5 -68.5t22.5 -68.5t54.5 -28.5t55 28.5t23 68.5zM300 549q0 -58 -36 -99t-86 -41t-85.5 41t-35.5 99t35.5 99t85.5 41t86 -41t36 -99zM499 128q0 40 -23 68t-55 28t-55 -28t-23 -68t23 -68.5t55 -28.5t55 28.5t23 68.5z M542 128q0 -59 -35.5 -100t-85.5 -41t-85.5 41t-35.5 100q0 58 35.5 99t85.5 41t85.5 -41t35.5 -99zM482 685l37 -22l-401 -674l-38 22z" />
<glyph unicode="&#x26;" d="M462 507q40 -95 40 -200q0 -109 -47 -188l113 -102l-28 -33q-47 39 -110 99q-77 -95 -195 -95q-64 0 -110.5 42.5t-46.5 107.5q0 64 28.5 114.5t80.5 104.5q-76 113 -76 188q0 61 34.5 101t84.5 40q54 0 87.5 -38.5t33.5 -94.5q0 -38 -18 -76.5t-37 -62t-54 -61.5 q65 -89 180 -202q37 69 37 156q0 43 -9.5 89t-19.5 70l-9 24zM235 31q100 0 163 82q-112 108 -185 208q-44 -48 -67.5 -90.5t-23.5 -92.5t34.5 -78.5t78.5 -28.5zM155 545q0 -64 62 -155q45 47 68 84t23 79q0 38 -21.5 64t-56.5 26q-32 0 -53.5 -27t-21.5 -71z" />
<glyph unicode="'" d="M330 533h-44v217h44v-217z" />
<glyph unicode="(" d="M425 739q-6 -6 -15.5 -17t-33.5 -53t-42.5 -93t-33.5 -138t-15 -186q0 -84 14 -162.5t34.5 -131t40.5 -92.5t34 -59l14 -19l-35 -26q-6 7 -16 20.5t-35 60.5t-44 99.5t-35 136.5t-16 173q0 103 15.5 194t38 147.5t45 97.5t38.5 59l15 17z" />
<glyph unicode=")" d="M190 -211q6 6 15.5 17t33.5 53t42.5 93t33.5 138t15 186q0 84 -14 162.5t-34 131t-40.5 92.5t-34.5 59l-14 19l35 26q6 -7 16 -20.5t35 -60.5t44 -99.5t35 -136.5t16 -173q0 -103 -15.5 -194t-38 -147.5t-45 -97.5t-37.5 -59l-16 -17z" />
<glyph unicode="*" d="M141 630l24 36l121 -79v163h43v-163l121 79l24 -36l-127 -83l127 -84l-24 -36l-121 79v-163h-43v163l-121 -79l-24 36l127 84z" />
<glyph unicode="+" d="M329 472v-172h173v-43h-173v-173h-43v173h-172v43h172v172h43z" />
<glyph unicode="," d="M252 -176l-37 21l81 146q-53 12 -53 64q0 27 19 46t46 19t46 -19t19 -46q0 -18 -11 -39z" />
<glyph unicode="-" d="M144 257v43h328v-43h-328z" />
<glyph unicode="." d="M373 55q0 -27 -19 -46t-46 -19t-46 19t-19 46t19 46t46 19t46 -19t19 -46z" />
<glyph unicode="/" d="M185 -103l-41 14l287 852l41 -14z" />
<glyph unicode="0" d="M533 337q0 -147 -65.5 -252t-159.5 -105q-95 0 -159.5 106t-64.5 251q0 94 28.5 175.5t80.5 131.5t115 50q94 0 159.5 -104.5t65.5 -252.5zM127 338q0 -91 28.5 -167.5t74.5 -115.5l122 585q-20 10 -44 10q-74 0 -127.5 -92t-53.5 -220zM489 337q0 90 -28.5 166 t-74.5 115l-121 -585q21 -9 43 -9q73 0 127 92t54 221z" />
<glyph unicode="1" d="M123 569l-12 41l242 70v-637h192v-43h-443v43h207v579z" />
<glyph unicode="2" d="M492 44v-44h-387v79q33 40 111.5 127t118.5 138q84 107 84 183q0 54 -35 88.5t-98 34.5q-68 0 -144 -43l-23 36q34 22 81 36.5t86 14.5q81 0 128.5 -47.5t47.5 -119.5q0 -92 -93 -209q-27 -34 -62.5 -75.5t-84 -95t-74.5 -84.5v-19h344z" />
<glyph unicode="3" d="M177 382h104q136 36 136 150q0 55 -38 87t-97 32q-29 0 -66.5 -11.5t-64.5 -32.5l-27 34q32 25 77 39t81 14q79 0 128.5 -45t49.5 -117q0 -58 -28.5 -101t-79.5 -62q124 -23 124 -170q0 -209 -230 -209q-86 0 -149 13l9 43q62 -13 140 -13q99 0 143 40.5t44 125.5 q0 70 -34.5 104.5t-116.5 34.5h-105v44z" />
<glyph unicode="4" d="M345 674h75v-434h139v-43h-139v-197h-44v197h-294v83zM125 240h251v403l-251 -376v-27z" />
<glyph unicode="5" d="M118 48q65 -15 144 -15q99 0 144.5 44t45.5 149q0 156 -140 156q-91 0 -178 -39v331h347v-44h-303v-223q60 18 134 18q90 0 137 -52t47 -147q0 -128 -60 -182t-174 -54q-95 0 -156 16z" />
<glyph unicode="6" d="M374 654q-154 -96 -200 -252q56 22 129 22q99 0 147.5 -54t48.5 -166q0 -224 -196 -224q-106 0 -151.5 58t-45.5 170q0 156 53.5 277t192.5 206zM303 381q-72 0 -141 -30q-12 -65 -12 -143q0 -106 37.5 -145.5t115.5 -39.5q80 0 116.5 42.5t36.5 138.5t-37 136.5 t-116 40.5z" />
<glyph unicode="7" d="M95 631v43h384v-92l-251 -590l-40 17l248 582v40h-341z" />
<glyph unicode="8" d="M345 362q46 -28 74 -50.5t52 -62.5t24 -88q0 -88 -49.5 -134.5t-139.5 -46.5q-88 0 -139 43.5t-51 137.5q0 36 12 66.5t36.5 55.5t46 41t56.5 38q-58 38 -90 78t-32 98q0 156 161 156q79 0 119.5 -42t40.5 -114q0 -58 -32 -98t-89 -78zM188 538q0 -48 30.5 -83t87.5 -71 q56 36 86.5 71t30.5 83q0 115 -117 115q-63 0 -90.5 -29t-27.5 -86zM306 21q70 0 108 36.5t38 103.5q0 30 -11.5 56t-35 48.5t-44.5 37.5t-55 36q-35 -21 -56 -35.5t-44.5 -37t-35 -48.5t-11.5 -57q0 -140 147 -140z" />
<glyph unicode="9" d="M220 22q145 90 191 264q-49 -15 -123 -15q-188 0 -188 212q0 211 188 211q102 0 145.5 -54t43.5 -160q0 -351 -235 -495zM288 314q79 0 133 21q12 66 12 145q0 96 -34.5 133.5t-110.5 37.5q-73 0 -108.5 -37t-35.5 -131q0 -90 34.5 -129.5t109.5 -39.5z" />
<glyph unicode=":" d="M373 443q0 -27 -19 -46t-46 -19t-46 19t-19 46t19 46t46 19t46 -19t19 -46zM373 55q0 -27 -19 -46t-46 -19t-46 19t-19 46t19 46t46 19t46 -19t19 -46z" />
<glyph unicode=";" d="M252 -176l-37 21l81 146q-53 12 -53 64q0 27 19 46t46 19t46 -19t19 -46q0 -18 -11 -39zM373 443q0 -27 -19 -46t-46 -19t-46 19t-19 46t19 46t46 19t46 -19t19 -46z" />
<glyph unicode="&#x3c;" d="M119 224v51l328 241l24 -33l-317 -233l322 -234l-23 -34z" />
<glyph unicode="=" d="M114 350v43h388v-43h-388zM502 164h-388v43h388v-43z" />
<glyph unicode="&#x3e;" d="M496 275v-51l-334 -242l-23 34l322 234l-317 233l24 33z" />
<glyph unicode="?" d="M373 55q0 -27 -19 -46t-46 -19t-46 19t-19 46t19 46t46 19t46 -19t19 -46zM330 243h-44q0 51 19 93t41 66.5t41 63.5t19 83q0 47 -25.5 74t-72.5 27q-29 0 -51 -9t-32.5 -22t-17 -26.5t-7.5 -22.5l-1 -9h-43q0 5 1.5 14t10.5 32t23.5 40t45 31.5t71.5 14.5 q64 0 102.5 -39t38.5 -105q0 -41 -12.5 -75.5t-29.5 -59.5t-34.5 -49t-30 -55t-12.5 -67z" />
<glyph unicode="@" d="M308 573q117 0 189.5 -95t72.5 -229q0 -86 -30.5 -121t-68.5 -35q-46 0 -68 47q-57 -58 -114 -58q-48 0 -79.5 28t-31.5 70q0 38 28.5 66t72.5 28q28 0 52.5 -10t59.5 -45v52q0 96 -93 96q-48 0 -80 -20l-24 36q43 27 104 27q65 0 100.5 -36t35.5 -103v-96q12 -38 37 -38 q56 0 56 112q0 116 -62.5 198.5t-156.5 82.5q-89 0 -153.5 -81.5t-64.5 -199.5q0 -119 63.5 -200t157.5 -81q87 0 157 83l35 -26q-34 -44 -85 -72.5t-107 -28.5q-114 0 -189.5 91.5t-75.5 233.5q0 140 78.5 232t183.5 92zM290 125q42 0 96 48q-33 32 -55 45t-47 13 q-29 0 -45.5 -14.5t-16.5 -36.5t19.5 -38.5t48.5 -16.5z" />
<glyph unicode="A" d="M71 6l182 668h110l182 -668l-42 -11l-78 286h-234l-78 -286zM286 630l-84 -306h211l-83 306h-44z" />
<glyph unicode="B" d="M343 631h-173v-261h157q53 0 80.5 43t27.5 101q0 52 -26 84.5t-66 32.5zM346 327h-176v-284h159q52 0 84.5 44t32.5 113q0 62 -30 94.5t-70 32.5zM126 0v674h217q58 0 96.5 -45.5t38.5 -113.5q0 -105 -68 -160q42 -23 61 -66.5t19 -90.5q0 -83 -44.5 -140.5t-116.5 -57.5 h-203z" />
<glyph unicode="C" d="M322 694q69 0 111 -39.5t61 -93.5l-41 -15q-40 104 -131 104q-78 0 -125.5 -84.5t-47.5 -228.5q0 -138 48 -226t120 -88q59 0 99 48t56 114l43 -10q-17 -75 -68.5 -135t-129.5 -60q-95 0 -153 101.5t-58 255.5q0 166 59.5 261.5t156.5 95.5z" />
<glyph unicode="D" d="M128 0v674h153q88 0 134 -24t68 -89.5t22 -192.5q0 -94 -4.5 -150.5t-17.5 -103.5t-39 -69t-66 -33.5t-102 -11.5h-148zM281 631h-110v-588h105q44 0 70 3.5t49.5 16.5t34.5 32.5t19 58.5t10.5 88t2.5 126q0 88 -7.5 138t-29.5 79t-54 37.5t-90 8.5z" />
<glyph unicode="E" d="M153 674h321v-43h-277v-261h200v-43h-200v-284h277v-43h-321v674z" />
<glyph unicode="F" d="M156 674h320v-43h-277v-292h201v-43h-201v-296h-43v674z" />
<glyph unicode="G" d="M279 358h213q6 -105 -7 -181.5t-42 -118t-63 -60t-76 -18.5q-96 0 -154.5 100.5t-58.5 256.5q0 158 59.5 257.5t153.5 99.5q59 0 107 -37t68 -97l-41 -13q-17 49 -54 76.5t-80 27.5q-78 0 -123.5 -91.5t-45.5 -222.5q0 -138 47 -226t122 -88q57 0 92 44t46 106t8 142 h-171v43z" />
<glyph unicode="H" d="M121 674h44v-304h286v304h43v-674h-43v327h-286v-327h-44v674z" />
<glyph unicode="I" d="M163 631v43h290v-43h-123v-588h192v-43h-428v43h192v588h-123z" />
<glyph unicode="J" d="M142 630v44h236v-529l-148 -254l-38 22l143 244v473h-193z" />
<glyph unicode="K" d="M465 682l36 -24l-200 -309l220 -315l-35 -25l-223 318h-76v-327h-43v674h43v-304h76z" />
<glyph unicode="L" d="M202 674h43v-631h278v-43h-321v674z" />
<glyph unicode="M" d="M337 375h-58l-107 256h-44v-631h-43v674h116l107 -257l107 257h116v-674h-44v631h-43z" />
<glyph unicode="N" d="M114 674h105l208 -631h30v631h44v-674h-105l-208 631h-31v-631h-43v674z" />
<glyph unicode="O" d="M524 337q0 -147 -63.5 -252t-153.5 -105q-89 0 -152.5 105t-63.5 252t63.5 252t152.5 105q90 0 153.5 -105t63.5 -252zM480 337q0 129 -50.5 220.5t-122.5 91.5q-71 0 -122 -92t-51 -220t51 -220t122 -92q72 0 122.5 92t50.5 220z" />
<glyph unicode="P" d="M150 0v674h210q70 0 112 -46.5t42 -125.5q0 -93 -48.5 -145.5t-112.5 -52.5h-159v-304h-44zM360 631h-166v-284h159q48 0 82.5 41t34.5 114q0 59 -28.5 94t-81.5 35z" />
<glyph unicode="Q" d="M529 -123l-24 -36l-203 140q-88 3 -149.5 107t-61.5 249q0 147 63.5 252t152.5 105q90 0 153.5 -105t63.5 -252q0 -122 -46 -218t-116 -127zM480 337q0 129 -50.5 220.5t-122.5 91.5q-71 0 -122 -92t-51 -220t51 -220.5t122 -92.5q72 0 122.5 92.5t50.5 220.5z" />
<glyph unicode="R" d="M141 674h214q66 0 107.5 -43t41.5 -112q0 -79 -43.5 -128t-110.5 -50l181 -327l-38 -21l-192 348h-117v-341h-43v674zM355 631h-171v-247h165q51 0 81.5 37.5t30.5 97.5q0 51 -29 81.5t-77 30.5z" />
<glyph unicode="S" d="M310 694q92 0 159 -59l-31 -30q-51 45 -128 45q-53 0 -91.5 -27t-38.5 -80q0 -33 16.5 -63t42.5 -54t57.5 -47.5t63.5 -48.5t58 -52.5t42.5 -65t16.5 -79.5q0 -65 -50.5 -109t-129.5 -44q-59 0 -110.5 25t-82.5 71l38 22q53 -74 155 -74q64 0 100.5 32t36.5 77 q0 50 -30.5 92.5t-74 75t-87.5 65t-74.5 78t-30.5 99.5q0 66 47.5 108.5t125.5 42.5z" />
<glyph unicode="T" d="M84 674h447v-43h-202v-631h-43v631h-202v43z" />
<glyph unicode="U" d="M115 674h44v-429q0 -221 148 -221q149 0 149 221v429h44v-429q0 -134 -51.5 -199.5t-141.5 -65.5q-86 0 -139 63t-53 202v429z" />
<glyph unicode="V" d="M57 667l42 12l184 -636h50l185 636l41 -12l-194 -667h-114z" />
<glyph unicode="W" d="M270 402h75l71 -359h42l60 632l43 -4l-63 -671h-114l-76 380l-76 -380h-114l-64 671l44 4l59 -632h42z" />
<glyph unicode="X" d="M108 666l40 17l140 -317h40l140 317l40 -17l-142 -321l157 -335l-39 -18l-155 330h-42l-154 -330l-40 18l157 334z" />
<glyph unicode="Y" d="M329 253v-253h-44v253l-187 411l39 18l170 -373l170 373l40 -18z" />
<glyph unicode="Z" d="M522 0h-421v83l365 525v23h-354v43h398v-79l-365 -526v-26h377v-43z" />
<glyph unicode="[" d="M226 750h266v-43h-222v-741h222v-43h-266v827z" />
<glyph unicode="\" d="M472 -89l-41 -14l-287 852l41 14z" />
<glyph unicode="]" d="M123 750h266v-827h-266v43h222v741h-222v43z" />
<glyph unicode="^" d="M291 674h51l242 -334l-34 -23l-234 322l-233 -316l-33 24z" />
<glyph unicode="_" d="M64 -43v43h488v-43h-488z" />
<glyph unicode="`" d="M353 742l-29 -28l-143 140l29 30z" />
<glyph unicode="a" d="M587 -15l-143 96q-45 -40 -100.5 -65.5t-103.5 -25.5q-72 0 -114 39.5t-42 96.5q0 55 40 96t108 41q88 0 200 -27v99q0 55 -41 92.5t-103 37.5q-79 0 -141 -18l-15 41q66 20 156 20q79 0 133 -49.5t54 -123.5v-222l136 -92zM240 34q48 0 101.5 29.5t90.5 65.5v62 q-110 29 -200 29q-50 0 -77.5 -29t-27.5 -65q0 -37 28.5 -64.5t84.5 -27.5z" />
<glyph unicode="b" d="M172 750v-264q73 22 143 22q104 0 149.5 -55t45.5 -188q0 -149 -45.5 -211.5t-170.5 -62.5q-100 0 -166 23v736h44zM315 465q-64 0 -143 -24v-395q49 -12 122 -12q102 0 137 47t35 184q0 120 -34.5 160t-116.5 40z" />
<glyph unicode="c" d="M326 518q123 0 182 -111l-39 -20q-46 87 -143 87q-75 0 -123.5 -61.5t-48.5 -163.5q0 -97 47.5 -161.5t127.5 -64.5q56 0 94.5 32.5t56.5 86.5l42 -11q-19 -63 -69 -107t-124 -44q-97 0 -157.5 76t-60.5 193q0 119 60 194t155 75z" />
<glyph unicode="d" d="M584 -18l-140 88q-49 -44 -88.5 -67t-89.5 -23q-97 0 -146 69.5t-49 199.5q0 259 220 259q64 0 130 -16v258h43v-640l143 -91zM266 23q11 0 22 1.5t21 5t18.5 7t18 10t16 10.5t16.5 12.5t14.5 12.5t14.5 13.5t14 12.5v339q-68 18 -130 18q-89 0 -133 -50t-44 -166 q0 -226 152 -226z" />
<glyph unicode="e" d="M510 275h-362q-1 -9 -1 -26q0 -102 46 -164t122 -62q105 0 149 112l42 -13q-23 -62 -71.5 -102t-120.5 -40q-94 0 -152 74t-58 195q0 114 57 191.5t154 77.5q86 0 142.5 -69t52.5 -174zM315 474q-60 0 -103.5 -42t-58.5 -114h311q-7 70 -49.5 113t-99.5 43z" />
<glyph unicode="f" d="M494 44v-44h-398v44h144v540q0 75 47.5 120.5t118.5 45.5h88v-44h-88q-54 0 -88 -32.5t-34 -89.5v-86h210v-43h-210v-411h210z" />
<glyph unicode="g" d="M480 498v-587q0 -158 -179 -158q-96 0 -140.5 31t-44.5 101q0 55 34 87.5t111 48.5l175 36v64q-54 -8 -144 -8q-100 0 -147 45t-47 151q0 117 48.5 163t167.5 46q36 0 77.5 -5t64.5 -10zM292 156q85 0 144 9v296q-70 14 -119 14q-104 0 -139.5 -33t-35.5 -133 q0 -86 33 -119.5t117 -33.5zM295 -204q78 0 109.5 26t31.5 89v101q-87 -16 -164 -33q-62 -14 -87 -34.5t-25 -59.5q0 -44 28 -66.5t107 -22.5z" />
<glyph unicode="h" d="M165 0h-43v750h43v-297q64 55 155 55q74 0 119 -43.5t45 -117.5v-347h-44v347q0 54 -30.5 85.5t-89.5 31.5q-104 0 -155 -69v-395z" />
<glyph unicode="i" d="M352 498v-454h192v-44h-428v44h192v411h-192v43h236zM373 706q0 -27 -19 -46t-46 -19t-46 19t-19 46t19 46t46 19t46 -19t19 -46z" />
<glyph unicode="j" d="M388 706q0 -27 -19 -46t-46 -19t-46 19t-19 46t19 46t46 19t46 -19t19 -46zM130 455v43h236v-482l-148 -254l-37 22l142 243v428h-193z" />
<glyph unicode="k" d="M439 500l34 -26l-163 -205l207 -245l-34 -27l-210 250h-84v-248h-43v751h43v-459h83z" />
<glyph unicode="l" d="M94 0v43h192v707h44v-707h192v-43h-428z" />
<glyph unicode="m" d="M9 471l27 34l85 -68q37 70 115 70q65 0 96 -51q39 51 97 51q114 0 114 -131v-376h-44v376q0 50 -17.5 69t-52.5 19q-62 0 -79 -69v-6v-389h-44v389q0 34 -18 54.5t-52 20.5q-28 0 -52 -15.5t-32 -48.5v-400h-44v393z" />
<glyph unicode="n" d="M13 470l24 36l108 -74q65 76 195 76q82 0 128.5 -44t46.5 -117v-347h-43v347q0 56 -34.5 86.5t-97.5 30.5q-118 0 -168 -69v-395h-43v390z" />
<glyph unicode="o" d="M519 249q0 -111 -62 -190t-149 -79t-149 79.5t-62 189.5q0 111 62 190t149 79q88 0 149.5 -79t61.5 -190zM475 249q0 93 -49 159.5t-118 66.5t-118 -66.5t-49 -159.5t49 -159.5t118 -66.5t118 66.5t49 159.5z" />
<glyph unicode="p" d="M318 0q-70 0 -123 19v-247h-44v617l-141 79l21 38l137 -76q74 78 190 78q93 0 136 -60t43 -180q0 -137 -52.5 -202.5t-166.5 -65.5zM358 465q-101 0 -163 -70v-330q55 -22 122 -22q92 0 134.5 50t42.5 175q0 114 -35 155.5t-101 41.5z" />
<glyph unicode="q" d="M325 508q86 0 166 -20v-716h-43v250q-72 -22 -144 -22q-105 0 -149.5 60.5t-44.5 192.5q0 140 49.5 197.5t165.5 57.5zM304 43q67 0 144 24v386q-56 12 -123 12q-99 0 -135.5 -45t-36.5 -167q0 -120 35 -165t116 -45z" />
<glyph unicode="r" d="M522 498v-43h-126q-77 0 -128 -60v-351h254v-44h-429v44h131v347l-141 78l21 38l137 -76q63 67 155 67h126z" />
<glyph unicode="s" d="M298 518q85 0 148 -29l-17 -38q-52 23 -131 23q-46 0 -78 -23t-32 -61q0 -34 28.5 -60.5t69 -45.5t80.5 -39t68.5 -53.5t28.5 -78.5q0 -60 -43 -96.5t-115 -36.5q-106 0 -186 50l24 36q75 -43 162 -43q54 0 84.5 23t30.5 62q0 36 -28.5 63t-69.5 46t-82 39.5t-69.5 54 t-28.5 79.5q0 53 43 90.5t113 37.5z" />
<glyph unicode="t" d="M498 498v-44h-210v-289q0 -55 33.5 -88.5t88.5 -33.5h88v-43h-89q-71 0 -118 45.5t-47 119.5v289h-175v44h175v176h44v-176h210z" />
<glyph unicode="u" d="M117 208v290h43v-290q0 -85 40.5 -135t107.5 -50q62 0 104.5 47.5t42.5 137.5v290h43v-290q0 -107 -54 -167.5t-136 -60.5q-84 0 -137.5 61t-53.5 167z" />
<glyph unicode="v" d="M88 491l41 14l161 -462h36l161 462l41 -14l-171 -491h-98z" />
<glyph unicode="w" d="M270 402h76l56 -359h42l74 458l43 -7l-80 -494h-113l-60 388l-60 -388h-114l-79 494l42 7l74 -458h43z" />
<glyph unicode="x" d="M144 -12l-38 23l144 244l-129 232l38 21l129 -232h39l129 232l38 -21l-130 -232l145 -244l-38 -23l-144 245h-40z" />
<glyph unicode="y" d="M477 506l41 -15l-263 -726l-41 15l79 220h-22l-189 491l41 15l182 -474z" />
<glyph unicode="z" d="M116 455v43h378v-100l-341 -317v-37h351v-44h-394v99l340 318v38h-334z" />
<glyph unicode="{" d="M169 239v44q68 0 95.5 29t27.5 102v152q0 97 45 143.5t150 46.5v-43q-83 0 -117.5 -32t-34.5 -115v-152q0 -115 -66 -153q66 -38 66 -153v-152q0 -83 34.5 -115t117.5 -32v-43q-105 0 -150 46.5t-45 143.5v152q0 71 -26.5 100t-90.5 31h-6z" />
<glyph unicode="|" d="M286 750h44v-827h-44v827z" />
<glyph unicode="}" d="M446 283v-44q-68 0 -95.5 -29t-27.5 -102v-152q0 -97 -45 -143.5t-150 -46.5v43q83 0 117.5 32t34.5 115v152q0 115 66 153q-66 38 -66 153v152q0 83 -34.5 115t-117.5 32v43q105 0 150 -46.5t45 -143.5v-152q0 -71 26.5 -100t90.5 -31h6z" />
<glyph unicode="~" d="M504 319l24 -36q-58 -40 -125 -40q-41 0 -97 20t-95 20q-55 0 -95 -36l-28 34q53 46 123 46q42 0 98 -20t94 -20q54 0 101 32z" />
<glyph unicode="&#xa0;" />
<glyph unicode="&#xa1;" d="M243 619q0 27 19 46t46 19t46 -19t19 -46t-19 -46t-46 -19t-46 19t-19 46zM286 431h44v-431h-44v431z" />
<glyph unicode="&#xa2;" d="M346 -120h-43v102q-87 10 -139.5 84t-52.5 183q0 111 53 184.5t139 82.5v102h43v-101q108 -9 162 -110l-39 -20q-46 87 -143 87q-75 0 -123.5 -61.5t-48.5 -163.5q0 -97 47.5 -161.5t127.5 -64.5q56 0 94.5 32.5t56.5 86.5l42 -11q-18 -59 -63.5 -102t-112.5 -48v-101z " />
<glyph unicode="&#xa3;" d="M84 257v43h105l39 239q10 63 55.5 99t108.5 36h88v-44h-88q-47 0 -80 -26t-40 -72l-37 -232h177v-43h-184l-33 -214h308v-43h-363l42 257h-98z" />
<glyph unicode="&#xa5;" d="M114 253v43h151l-167 368l39 18l170 -373l170 373l40 -18l-169 -368h154v-43h-173v-92h173v-43h-173v-118h-44v118h-171v43h171v92h-171z" />
<glyph unicode="&#xa6;" d="M286 277h44v-354h-44v354zM330 397h-44v353h44v-353z" />
<glyph unicode="&#xa7;" d="M161 69q4 -4 12.5 -11t40 -18t67.5 -11q116 0 116 82q0 31 -26.5 51.5t-64.5 33t-76 28t-64.5 48.5t-26.5 83q0 68 64 117q-44 36 -44 99q0 52 35 85.5t105 33.5q37 0 68.5 -6.5t44.5 -13.5l12 -6l-23 -36q-31 19 -102 19q-96 0 -96 -76q0 -28 14 -48t36.5 -31.5 t49.5 -20.5t53.5 -20t49 -26t36.5 -42.5t14 -65.5q0 -73 -60 -119q44 -34 44 -87q0 -59 -41 -92t-118 -33q-46 0 -84 13.5t-53 26.5l-15 14zM413 317q0 26 -9.5 45t-29.5 31.5t-37.5 20t-46.5 17t-45 16.5q-11 -6 -23 -15t-25.5 -30.5t-13.5 -46.5t9.5 -44t30 -32t38 -21 t47.5 -19t45 -18q60 33 60 96z" />
<glyph unicode="&#xa8;" d="M265 784q0 -27 -19 -46t-46 -19t-46 19t-19 46t19 46t46 19t46 -19t19 -46zM480 784q0 -27 -19 -46t-46 -19t-46 19t-19 46t19 46t46 19t46 -19t19 -46z" />
<glyph unicode="&#xa9;" d="M556 335q0 -145 -73 -247t-176 -102t-175.5 102t-72.5 247t72.5 247t175.5 102t176 -102t73 -247zM512 335q0 127 -60 216t-145 89t-145 -89t-60 -216t60 -216t145 -89t145 89t60 216zM314 506q36 0 64 -16t38 -32l11 -17l-38 -20q-2 5 -7.5 12t-24.5 18.5t-43 11.5 q-44 0 -71 -33.5t-27 -94.5q0 -57 26.5 -92.5t68.5 -35.5q31 0 53.5 16.5t29.5 32.5l6 17l41 -14q-1 -4 -3.5 -10.5t-13 -22.5t-24 -28.5t-37.5 -23t-52 -10.5q-60 0 -99.5 47.5t-39.5 123.5q0 80 40 125.5t102 45.5z" />
<glyph unicode="&#xab;" d="M280 259v38l171 171l29 -31l-160 -159l160 -159l-29 -31zM97 259v38l171 171l29 -31l-160 -159l160 -159l-29 -31z" />
<glyph unicode="&#xad;" d="M144 257v43h328v-43h-328z" />
<glyph unicode="&#xae;" d="M529 421q0 -110 -65 -187t-157 -77t-156.5 77.5t-64.5 186.5t65 186t156 77q92 0 157 -77t65 -186zM485 421q0 91 -52 155.5t-126 64.5q-73 0 -125 -64.5t-52 -155.5q0 -92 52 -156.5t125 -64.5q74 0 126 64.5t52 156.5zM210 556h124q36 0 57 -20.5t21 -52.5 q0 -31 -16 -52t-45 -26l77 -101l-34 -26l-96 126h-45v-114h-43v266zM369 483q0 29 -35 29h-81v-65h79q37 0 37 36z" />
<glyph unicode="&#xaf;" d="M429 750h-240v43h240v-43z" />
<glyph unicode="&#xb0;" d="M144 530q0 68 48 116t116 48t116 -48t48 -116t-48 -116t-116 -48t-116 48t-48 116zM187 530q0 -51 35 -86t86 -35t86 35t35 86t-35 86t-86 35t-86 -35t-35 -86z" />
<glyph unicode="&#xb1;" d="M329 498v-172h173v-43h-173v-173h-43v173h-172v43h172v172h43zM502 26h-388v43h388v-43z" />
<glyph unicode="&#xb4;" d="M294 714l-29 28l143 142l29 -30z" />
<glyph unicode="&#xb6;" d="M495 673v-673h-44v673h44zM374 674v-674h-44v304h-136q-65 0 -114.5 50.5t-49.5 142.5q0 79 47 128t117 49h180z" />
<glyph unicode="&#xb7;" d="M373 249q0 -27 -19 -46t-46 -19t-46 19t-19 46t19 46t46 19t46 -19t19 -46z" />
<glyph unicode="&#xb8;" d="M295 37h45l-19 -68q85 -14 85 -81q0 -34 -29 -55.5t-78 -21.5q-28 0 -59 8l10 40q26 -6 49 -6q30 0 47.5 9.5t17.5 25.5q0 21 -25 33t-69 12z" />
<glyph unicode="&#xbb;" d="M335 297v-38l-171 -171l-29 31l160 159l-160 159l29 31zM518 297v-38l-171 -171l-29 31l160 159l-160 159l29 31z" />
<glyph unicode="&#xbf;" d="M232 443q0 27 19 46t46 19t46 -19t19 -46t-19 -46t-46 -19t-46 19t-19 46zM275 255h44q0 -42 -12.5 -76.5t-30 -59t-35 -48t-30 -54.5t-12.5 -68q0 -47 25.5 -74t72.5 -27t74 22.5t31 44.5l4 22h43q0 -5 -1.5 -14t-10.5 -32t-23.5 -40t-45 -31.5t-71.5 -14.5 q-64 0 -102.5 39t-38.5 105q0 41 12.5 75.5t30 59.5t34.5 49t29.5 55t12.5 67z" />
<glyph unicode="&#xc0;" d="M71 6l182 668h110l182 -668l-42 -11l-78 286h-234l-78 -286zM286 630l-84 -306h211l-83 306h-44zM353 742l-29 -28l-143 140l29 30z" />
<glyph unicode="&#xc1;" d="M71 6l182 668h110l182 -668l-42 -11l-78 286h-234l-78 -286zM286 630l-84 -306h211l-83 306h-44zM294 714l-29 28l143 142l29 -30z" />
<glyph unicode="&#xc2;" d="M71 6l182 668h110l182 -668l-42 -11l-78 286h-234l-78 -286zM286 630l-84 -306h211l-83 306h-44zM453 745l-30 -31l-114 114l-114 -113l-29 30l143 140z" />
<glyph unicode="&#xc3;" d="M71 6l182 668h110l182 -668l-42 -11l-78 286h-234l-78 -286zM286 630l-84 -306h211l-83 306h-44zM207 739l-37 25q3 5 9.5 13t28.5 21.5t47 13.5q23 0 54.5 -15.5t47.5 -15.5t30 8t20 16l6 8l36 -25q-4 -6 -11 -15t-30.5 -23.5t-48.5 -14.5q-29 0 -59.5 15.5t-44.5 15.5 t-26 -7t-17 -13z" />
<glyph unicode="&#xc4;" d="M71 6l182 668h110l182 -668l-42 -11l-78 286h-234l-78 -286zM286 630l-84 -306h211l-83 306h-44zM265 784q0 -27 -19 -46t-46 -19t-46 19t-19 46t19 46t46 19t46 -19t19 -46zM480 784q0 -27 -19 -46t-46 -19t-46 19t-19 46t19 46t46 19t46 -19t19 -46z" />
<glyph unicode="&#xc5;" d="M71 6l182 668h110l182 -668l-42 -11l-78 286h-234l-78 -286zM286 630l-84 -306h211l-83 306h-44zM201 822q0 45 31.5 76.5t76.5 31.5t76.5 -31.5t31.5 -76.5t-31.5 -76.5t-76.5 -31.5t-76.5 31.5t-31.5 76.5zM244 822q0 -27 19 -46t46 -19t46 19t19 46t-19 46t-46 19 t-46 -19t-19 -46z" />
<glyph unicode="&#xc6;" d="M68 -7l-41 14l222 667h314v-43h-200v-261h139v-43h-139v-284h200v-43h-243v245h-169zM280 631l-114 -343h154v343h-40z" />
<glyph unicode="&#xc7;" d="M322 694q69 0 111 -39.5t61 -93.5l-41 -15q-40 104 -131 104q-78 0 -125.5 -84.5t-47.5 -228.5q0 -138 48 -226t120 -88q59 0 99 48t56 114l43 -10q-16 -67 -59.5 -123.5t-108.5 -68.5l-18 -64q85 -14 85 -81q0 -34 -29 -55.5t-78 -21.5q-28 0 -59 8l10 40q26 -6 49 -6 q30 0 47.5 9.5t17.5 25.5q0 21 -25 33t-69 12l23 98q-89 9 -142 109t-53 247q0 166 59.5 261.5t156.5 95.5z" />
<glyph unicode="&#xc8;" d="M153 674h321v-43h-277v-261h200v-43h-200v-284h277v-43h-321v674zM353 742l-29 -28l-143 140l29 30z" />
<glyph unicode="&#xc9;" d="M153 674h321v-43h-277v-261h200v-43h-200v-284h277v-43h-321v674zM294 714l-29 28l143 142l29 -30z" />
<glyph unicode="&#xca;" d="M153 674h321v-43h-277v-261h200v-43h-200v-284h277v-43h-321v674zM453 745l-30 -31l-114 114l-114 -113l-29 30l143 140z" />
<glyph unicode="&#xcb;" d="M153 674h321v-43h-277v-261h200v-43h-200v-284h277v-43h-321v674zM265 784q0 -27 -19 -46t-46 -19t-46 19t-19 46t19 46t46 19t46 -19t19 -46zM480 784q0 -27 -19 -46t-46 -19t-46 19t-19 46t19 46t46 19t46 -19t19 -46z" />
<glyph unicode="&#xcc;" d="M163 631v43h290v-43h-123v-588h192v-43h-428v43h192v588h-123zM353 742l-29 -28l-143 140l29 30z" />
<glyph unicode="&#xcd;" d="M163 631v43h290v-43h-123v-588h192v-43h-428v43h192v588h-123zM294 714l-29 28l143 142l29 -30z" />
<glyph unicode="&#xce;" d="M163 631v43h290v-43h-123v-588h192v-43h-428v43h192v588h-123zM453 745l-30 -31l-114 114l-114 -113l-29 30l143 140z" />
<glyph unicode="&#xcf;" d="M163 631v43h290v-43h-123v-588h192v-43h-428v43h192v588h-123zM265 784q0 -27 -19 -46t-46 -19t-46 19t-19 46t19 46t46 19t46 -19t19 -46zM480 784q0 -27 -19 -46t-46 -19t-46 19t-19 46t19 46t46 19t46 -19t19 -46z" />
<glyph unicode="&#xd0;" d="M50 327v43h78v304h153q88 0 134 -24t68 -89.5t22 -192.5q0 -94 -4.5 -150.5t-17.5 -103.5t-39 -69t-66 -33.5t-102 -11.5h-148v327h-78zM281 631h-110v-261h138v-43h-138v-284h105q44 0 70 3.5t49.5 16.5t34.5 32.5t19 58.5t10.5 88t2.5 126q0 88 -7.5 138t-29.5 79 t-54 37.5t-90 8.5z" />
<glyph unicode="&#xd1;" d="M114 674h105l208 -631h30v631h44v-674h-105l-208 631h-31v-631h-43v674zM207 739l-37 25q3 5 9.5 13t28.5 21.5t47 13.5q23 0 54.5 -15.5t47.5 -15.5t30 8t20 16l6 8l36 -25q-4 -6 -11 -15t-30.5 -23.5t-48.5 -14.5q-29 0 -59.5 15.5t-44.5 15.5t-26 -7t-17 -13z" />
<glyph unicode="&#xd2;" d="M524 337q0 -147 -63.5 -252t-153.5 -105q-89 0 -152.5 105t-63.5 252t63.5 252t152.5 105q90 0 153.5 -105t63.5 -252zM480 337q0 129 -50.5 220.5t-122.5 91.5q-71 0 -122 -92t-51 -220t51 -220t122 -92q72 0 122.5 92t50.5 220zM353 742l-29 -28l-143 140l29 30z" />
<glyph unicode="&#xd3;" d="M524 337q0 -147 -63.5 -252t-153.5 -105q-89 0 -152.5 105t-63.5 252t63.5 252t152.5 105q90 0 153.5 -105t63.5 -252zM480 337q0 129 -50.5 220.5t-122.5 91.5q-71 0 -122 -92t-51 -220t51 -220t122 -92q72 0 122.5 92t50.5 220zM294 714l-29 28l143 142l29 -30z" />
<glyph unicode="&#xd4;" d="M524 337q0 -147 -63.5 -252t-153.5 -105q-89 0 -152.5 105t-63.5 252t63.5 252t152.5 105q90 0 153.5 -105t63.5 -252zM480 337q0 129 -50.5 220.5t-122.5 91.5q-71 0 -122 -92t-51 -220t51 -220t122 -92q72 0 122.5 92t50.5 220zM453 745l-30 -31l-114 114l-114 -113 l-29 30l143 140z" />
<glyph unicode="&#xd5;" d="M524 337q0 -147 -63.5 -252t-153.5 -105q-89 0 -152.5 105t-63.5 252t63.5 252t152.5 105q90 0 153.5 -105t63.5 -252zM480 337q0 129 -50.5 220.5t-122.5 91.5q-71 0 -122 -92t-51 -220t51 -220t122 -92q72 0 122.5 92t50.5 220zM207 739l-37 25q3 5 9.5 13t28.5 21.5 t47 13.5q23 0 54.5 -15.5t47.5 -15.5t30 8t20 16l6 8l36 -25q-4 -6 -11 -15t-30.5 -23.5t-48.5 -14.5q-29 0 -59.5 15.5t-44.5 15.5t-26 -7t-17 -13z" />
<glyph unicode="&#xd6;" d="M524 337q0 -147 -63.5 -252t-153.5 -105q-89 0 -152.5 105t-63.5 252t63.5 252t152.5 105q90 0 153.5 -105t63.5 -252zM480 337q0 129 -50.5 220.5t-122.5 91.5q-71 0 -122 -92t-51 -220t51 -220t122 -92q72 0 122.5 92t50.5 220zM265 784q0 -27 -19 -46t-46 -19t-46 19 t-19 46t19 46t46 19t46 -19t19 -46zM480 784q0 -27 -19 -46t-46 -19t-46 19t-19 46t19 46t46 19t46 -19t19 -46z" />
<glyph unicode="&#xd7;" d="M148 466l158 -159l161 161l29 -31l-160 -159l160 -159l-29 -31l-161 160l-158 -158l-30 29l159 159l-159 159z" />
<glyph unicode="&#xd8;" d="M134 -11l-38 22l50 88q-55 102 -55 238q0 147 63.5 252t152.5 105q75 0 135 -78l39 68l37 -21l-50 -88q56 -101 56 -238q0 -147 -63.5 -252t-153.5 -105q-75 0 -134 78zM134 337q0 -109 38 -194l247 432q-48 74 -112 74q-71 0 -122 -92t-51 -220zM480 337q0 109 -38 193 l-246 -432q49 -73 111 -73q72 0 122.5 92t50.5 220z" />
<glyph unicode="&#xd9;" d="M115 674h44v-429q0 -221 148 -221q149 0 149 221v429h44v-429q0 -134 -51.5 -199.5t-141.5 -65.5q-86 0 -139 63t-53 202v429zM353 742l-29 -28l-143 140l29 30z" />
<glyph unicode="&#xda;" d="M115 674h44v-429q0 -221 148 -221q149 0 149 221v429h44v-429q0 -134 -51.5 -199.5t-141.5 -65.5q-86 0 -139 63t-53 202v429zM294 714l-29 28l143 142l29 -30z" />
<glyph unicode="&#xdb;" d="M115 674h44v-429q0 -221 148 -221q149 0 149 221v429h44v-429q0 -134 -51.5 -199.5t-141.5 -65.5q-86 0 -139 63t-53 202v429zM453 745l-30 -31l-114 114l-114 -113l-29 30l143 140z" />
<glyph unicode="&#xdc;" d="M115 674h44v-429q0 -221 148 -221q149 0 149 221v429h44v-429q0 -134 -51.5 -199.5t-141.5 -65.5q-86 0 -139 63t-53 202v429zM265 784q0 -27 -19 -46t-46 -19t-46 19t-19 46t19 46t46 19t46 -19t19 -46zM480 784q0 -27 -19 -46t-46 -19t-46 19t-19 46t19 46t46 19 t46 -19t19 -46z" />
<glyph unicode="&#xdd;" d="M329 253v-253h-44v253l-187 411l39 18l170 -373l170 373l40 -18zM294 714l-29 28l143 142l29 -30z" />
<glyph unicode="&#xde;" d="M150 674h44v-136h166q70 0 112 -46.5t42 -125.5q0 -93 -48.5 -145.5t-112.5 -52.5h-159v-168h-44v674zM360 495h-166v-284h159q48 0 82.5 41t34.5 114q0 59 -28.5 94t-81.5 35z" />
<glyph unicode="&#xdf;" d="M442 584q0 56 -38.5 89t-93.5 33q-73 0 -112.5 -46.5t-39.5 -129.5v-517h-44v517q0 101 52.5 160.5t143.5 59.5q72 0 124 -45.5t52 -120.5q0 -26 -9.5 -53.5t-18.5 -42.5l-10 -14q-46 0 -78 -23t-32 -61q0 -32 17.5 -57t43.5 -40t56.5 -32.5t56.5 -34t43.5 -46 t17.5 -67.5q0 -60 -43 -96.5t-115 -36.5q-106 0 -186 50l24 36q75 -43 162 -43q54 0 84.5 23t30.5 62q0 36 -24.5 63t-59.5 46t-70 39.5t-59.5 54t-24.5 79.5q0 48 36 83.5t95 42.5q19 30 19 68z" />
<glyph unicode="&#xe0;" d="M587 -15l-143 96q-45 -40 -100.5 -65.5t-103.5 -25.5q-72 0 -114 39.5t-42 96.5q0 55 40 96t108 41q88 0 200 -27v99q0 55 -41 92.5t-103 37.5q-79 0 -141 -18l-15 41q66 20 156 20q79 0 133 -49.5t54 -123.5v-222l136 -92zM240 34q48 0 101.5 29.5t90.5 65.5v62 q-110 29 -200 29q-50 0 -77.5 -29t-27.5 -65q0 -37 28.5 -64.5t84.5 -27.5zM332 566l-29 -28l-143 140l29 30z" />
<glyph unicode="&#xe1;" d="M587 -15l-143 96q-45 -40 -100.5 -65.5t-103.5 -25.5q-72 0 -114 39.5t-42 96.5q0 55 40 96t108 41q88 0 200 -27v99q0 55 -41 92.5t-103 37.5q-79 0 -141 -18l-15 41q66 20 156 20q79 0 133 -49.5t54 -123.5v-222l136 -92zM240 34q48 0 101.5 29.5t90.5 65.5v62 q-110 29 -200 29q-50 0 -77.5 -29t-27.5 -65q0 -37 28.5 -64.5t84.5 -27.5zM273 538l-29 28l143 142l29 -30z" />
<glyph unicode="&#xe2;" d="M587 -15l-143 96q-45 -40 -100.5 -65.5t-103.5 -25.5q-72 0 -114 39.5t-42 96.5q0 55 40 96t108 41q88 0 200 -27v99q0 55 -41 92.5t-103 37.5q-79 0 -141 -18l-15 41q66 20 156 20q79 0 133 -49.5t54 -123.5v-222l136 -92zM240 34q48 0 101.5 29.5t90.5 65.5v62 q-110 29 -200 29q-50 0 -77.5 -29t-27.5 -65q0 -37 28.5 -64.5t84.5 -27.5zM432 569l-30 -31l-114 114l-114 -113l-29 30l143 140z" />
<glyph unicode="&#xe3;" d="M587 -15l-143 96q-45 -40 -100.5 -65.5t-103.5 -25.5q-72 0 -114 39.5t-42 96.5q0 55 40 96t108 41q88 0 200 -27v99q0 55 -41 92.5t-103 37.5q-79 0 -141 -18l-15 41q66 20 156 20q79 0 133 -49.5t54 -123.5v-222l136 -92zM240 34q48 0 101.5 29.5t90.5 65.5v62 q-110 29 -200 29q-50 0 -77.5 -29t-27.5 -65q0 -37 28.5 -64.5t84.5 -27.5zM186 563l-37 25q3 5 9.5 13t28.5 21.5t47 13.5q23 0 54.5 -15.5t47.5 -15.5t30 8t20 16l6 8l36 -25q-4 -6 -11 -15t-30.5 -23.5t-48.5 -14.5q-29 0 -59.5 15.5t-44.5 15.5t-26 -7t-17 -13z" />
<glyph unicode="&#xe4;" d="M587 -15l-143 96q-45 -40 -100.5 -65.5t-103.5 -25.5q-72 0 -114 39.5t-42 96.5q0 55 40 96t108 41q88 0 200 -27v99q0 55 -41 92.5t-103 37.5q-79 0 -141 -18l-15 41q66 20 156 20q79 0 133 -49.5t54 -123.5v-222l136 -92zM240 34q48 0 101.5 29.5t90.5 65.5v62 q-110 29 -200 29q-50 0 -77.5 -29t-27.5 -65q0 -37 28.5 -64.5t84.5 -27.5zM244 608q0 -27 -19 -46t-46 -19t-46 19t-19 46t19 46t46 19t46 -19t19 -46zM459 608q0 -27 -19 -46t-46 -19t-46 19t-19 46t19 46t46 19t46 -19t19 -46z" />
<glyph unicode="&#xe5;" d="M587 -15l-143 96q-45 -40 -100.5 -65.5t-103.5 -25.5q-72 0 -114 39.5t-42 96.5q0 55 40 96t108 41q88 0 200 -27v99q0 55 -41 92.5t-103 37.5q-79 0 -141 -18l-15 41q66 20 156 20q79 0 133 -49.5t54 -123.5v-222l136 -92zM240 34q48 0 101.5 29.5t90.5 65.5v62 q-110 29 -200 29q-50 0 -77.5 -29t-27.5 -65q0 -37 28.5 -64.5t84.5 -27.5zM180 646q0 45 31.5 76.5t76.5 31.5t76.5 -31.5t31.5 -76.5t-31.5 -76.5t-76.5 -31.5t-76.5 31.5t-31.5 76.5zM223 646q0 -27 19 -46t46 -19t46 19t19 46t-19 46t-46 19t-46 -19t-19 -46z" />
<glyph unicode="&#xe6;" d="M94 424l-35 26l5 7.5t15 16t25 20.5t34 16.5t43 7.5q81 0 113 -97q35 97 109 97q50 0 89.5 -55.5t38.5 -187.5h-217q1 -17 1 -49v-17q6 -186 88 -186q31 0 51.5 27.5t25.5 55.5l6 28l42 -9q-1 -6 -2.5 -15.5t-10.5 -34.5t-21.5 -44.5t-36.5 -35t-55 -15.5q-82 0 -113 105 q-22 -51 -58.5 -78t-77.5 -27q-51 0 -77.5 29.5t-26.5 77.5q0 25 10 49.5t33 49.5t69 41.5t110 18.5v20q-4 107 -24.5 157.5t-65.5 50.5q-24 0 -46 -12.5t-31 -25.5zM151 23q48 0 84.5 53.5t36.5 126.5q-90 -4 -134.5 -35.5t-44.5 -79.5q0 -65 58 -65zM403 474 q-34 0 -56.5 -40t-29.5 -116h170q-2 27 -7 52t-14 49.5t-25.5 39.5t-37.5 15z" />
<glyph unicode="&#xe7;" d="M326 518q123 0 182 -111l-39 -20q-46 87 -143 87q-75 0 -123.5 -61.5t-48.5 -163.5q0 -97 47.5 -161.5t127.5 -64.5q56 0 94.5 32.5t56.5 86.5l42 -11q-18 -56 -59.5 -98t-104.5 -51l-17 -63q85 -14 85 -81q0 -34 -29 -55.5t-78 -21.5q-28 0 -59 8l10 40q26 -6 49 -6 q30 0 47.5 9.5t17.5 25.5q0 21 -25 33t-69 12l23 98q-91 6 -146.5 80.5t-55.5 187.5q0 119 60 194t155 75z" />
<glyph unicode="&#xe8;" d="M510 275h-362q-1 -9 -1 -26q0 -102 46 -164t122 -62q105 0 149 112l42 -13q-23 -62 -71.5 -102t-120.5 -40q-94 0 -152 74t-58 195q0 114 57 191.5t154 77.5q86 0 142.5 -69t52.5 -174zM315 474q-60 0 -103.5 -42t-58.5 -114h311q-7 70 -49.5 113t-99.5 43zM353 566 l-29 -28l-143 140l29 30z" />
<glyph unicode="&#xe9;" d="M510 275h-362q-1 -9 -1 -26q0 -102 46 -164t122 -62q105 0 149 112l42 -13q-23 -62 -71.5 -102t-120.5 -40q-94 0 -152 74t-58 195q0 114 57 191.5t154 77.5q86 0 142.5 -69t52.5 -174zM315 474q-60 0 -103.5 -42t-58.5 -114h311q-7 70 -49.5 113t-99.5 43zM294 538 l-29 28l143 142l29 -30z" />
<glyph unicode="&#xea;" d="M510 275h-362q-1 -9 -1 -26q0 -102 46 -164t122 -62q105 0 149 112l42 -13q-23 -62 -71.5 -102t-120.5 -40q-94 0 -152 74t-58 195q0 114 57 191.5t154 77.5q86 0 142.5 -69t52.5 -174zM315 474q-60 0 -103.5 -42t-58.5 -114h311q-7 70 -49.5 113t-99.5 43zM453 569 l-30 -31l-114 114l-114 -113l-29 30l143 140z" />
<glyph unicode="&#xeb;" d="M510 275h-362q-1 -9 -1 -26q0 -102 46 -164t122 -62q105 0 149 112l42 -13q-23 -62 -71.5 -102t-120.5 -40q-94 0 -152 74t-58 195q0 114 57 191.5t154 77.5q86 0 142.5 -69t52.5 -174zM315 474q-60 0 -103.5 -42t-58.5 -114h311q-7 70 -49.5 113t-99.5 43zM265 608 q0 -27 -19 -46t-46 -19t-46 19t-19 46t19 46t46 19t46 -19t19 -46zM480 608q0 -27 -19 -46t-46 -19t-46 19t-19 46t19 46t46 19t46 -19t19 -46z" />
<glyph unicode="&#xec;" d="M352 498v-454h192v-44h-428v44h192v411h-192v43h236zM317 566l-29 -28l-143 140l29 30z" />
<glyph unicode="&#xed;" d="M352 498v-454h192v-44h-428v44h192v411h-192v43h236zM258 538l-29 28l143 142l29 -30z" />
<glyph unicode="&#xee;" d="M352 498v-454h192v-44h-428v44h192v411h-192v43h236zM417 569l-30 -31l-114 114l-114 -113l-29 30l143 140z" />
<glyph unicode="&#xef;" d="M352 498v-454h192v-44h-428v44h192v411h-192v43h236zM229 608q0 -27 -19 -46t-46 -19t-46 19t-19 46t19 46t46 19t46 -19t19 -46zM444 608q0 -27 -19 -46t-46 -19t-46 19t-19 46t19 46t46 19t46 -19t19 -46z" />
<glyph unicode="&#xf0;" d="M236 531l-22 37l111 64q-42 48 -94 81l22 37q60 -37 111 -96l121 70l22 -37l-117 -67q109 -157 109 -412q0 -112 -45.5 -170t-151.5 -58q-196 0 -196 224q0 112 48.5 166t147.5 54q74 0 132 -23q-26 114 -83 196zM302 381q-79 0 -116 -40.5t-37 -136.5t36.5 -138.5 t116.5 -42.5q78 0 115.5 39.5t37.5 145.5q0 71 -11 142q-70 31 -142 31z" />
<glyph unicode="&#xf1;" d="M13 470l24 36l108 -74q65 76 195 76q82 0 128.5 -44t46.5 -117v-347h-43v347q0 56 -34.5 86.5t-97.5 30.5q-118 0 -168 -69v-395h-43v390zM207 563l-37 25q3 5 9.5 13t28.5 21.5t47 13.5q23 0 54.5 -15.5t47.5 -15.5t30 8t20 16l6 8l36 -25q-4 -6 -11 -15t-30.5 -23.5 t-48.5 -14.5q-29 0 -59.5 15.5t-44.5 15.5t-26 -7t-17 -13z" />
<glyph unicode="&#xf2;" d="M519 249q0 -111 -62 -190t-149 -79t-149 79.5t-62 189.5q0 111 62 190t149 79q88 0 149.5 -79t61.5 -190zM475 249q0 93 -49 159.5t-118 66.5t-118 -66.5t-49 -159.5t49 -159.5t118 -66.5t118 66.5t49 159.5zM353 566l-29 -28l-143 140l29 30z" />
<glyph unicode="&#xf3;" d="M519 249q0 -111 -62 -190t-149 -79t-149 79.5t-62 189.5q0 111 62 190t149 79q88 0 149.5 -79t61.5 -190zM475 249q0 93 -49 159.5t-118 66.5t-118 -66.5t-49 -159.5t49 -159.5t118 -66.5t118 66.5t49 159.5zM294 538l-29 28l143 142l29 -30z" />
<glyph unicode="&#xf4;" d="M519 249q0 -111 -62 -190t-149 -79t-149 79.5t-62 189.5q0 111 62 190t149 79q88 0 149.5 -79t61.5 -190zM475 249q0 93 -49 159.5t-118 66.5t-118 -66.5t-49 -159.5t49 -159.5t118 -66.5t118 66.5t49 159.5zM453 569l-30 -31l-114 114l-114 -113l-29 30l143 140z" />
<glyph unicode="&#xf5;" d="M519 249q0 -111 -62 -190t-149 -79t-149 79.5t-62 189.5q0 111 62 190t149 79q88 0 149.5 -79t61.5 -190zM475 249q0 93 -49 159.5t-118 66.5t-118 -66.5t-49 -159.5t49 -159.5t118 -66.5t118 66.5t49 159.5zM207 563l-37 25q3 5 9.5 13t28.5 21.5t47 13.5 q23 0 54.5 -15.5t47.5 -15.5t30 8t20 16l6 8l36 -25q-4 -6 -11 -15t-30.5 -23.5t-48.5 -14.5q-29 0 -59.5 15.5t-44.5 15.5t-26 -7t-17 -13z" />
<glyph unicode="&#xf6;" d="M519 249q0 -111 -62 -190t-149 -79t-149 79.5t-62 189.5q0 111 62 190t149 79q88 0 149.5 -79t61.5 -190zM475 249q0 93 -49 159.5t-118 66.5t-118 -66.5t-49 -159.5t49 -159.5t118 -66.5t118 66.5t49 159.5zM265 608q0 -27 -19 -46t-46 -19t-46 19t-19 46t19 46t46 19 t46 -19t19 -46zM480 608q0 -27 -19 -46t-46 -19t-46 19t-19 46t19 46t46 19t46 -19t19 -46z" />
<glyph unicode="&#xf7;" d="M114 228v43h388v-43h-388zM373 55q0 -27 -19 -46t-46 -19t-46 19t-19 46t19 46t46 19t46 -19t19 -46zM373 443q0 -27 -19 -46t-46 -19t-46 19t-19 46t19 46t46 19t46 -19t19 -46z" />
<glyph unicode="&#xf8;" d="M480 509l35 -26l-46 -61q50 -76 50 -173q0 -110 -62 -189.5t-149 -79.5q-74 0 -132 58l-40 -53l-35 26l47 62q-51 77 -51 176q0 111 62 190t149 79q74 0 132 -61zM141 249q0 -77 35 -139l238 312q-47 52 -106 52q-69 0 -118 -66.5t-49 -158.5zM475 249q0 76 -35 136 l-237 -311q46 -51 105 -51q69 0 118 66.5t49 159.5z" />
<glyph unicode="&#xf9;" d="M117 208v290h43v-290q0 -85 40.5 -135t107.5 -50q62 0 104.5 47.5t42.5 137.5v290h43v-290q0 -107 -54 -167.5t-136 -60.5q-84 0 -137.5 61t-53.5 167zM353 566l-29 -28l-143 140l29 30z" />
<glyph unicode="&#xfa;" d="M117 208v290h43v-290q0 -85 40.5 -135t107.5 -50q62 0 104.5 47.5t42.5 137.5v290h43v-290q0 -107 -54 -167.5t-136 -60.5q-84 0 -137.5 61t-53.5 167zM294 538l-29 28l143 142l29 -30z" />
<glyph unicode="&#xfb;" d="M117 208v290h43v-290q0 -85 40.5 -135t107.5 -50q62 0 104.5 47.5t42.5 137.5v290h43v-290q0 -107 -54 -167.5t-136 -60.5q-84 0 -137.5 61t-53.5 167zM453 569l-30 -31l-114 114l-114 -113l-29 30l143 140z" />
<glyph unicode="&#xfc;" d="M117 208v290h43v-290q0 -85 40.5 -135t107.5 -50q62 0 104.5 47.5t42.5 137.5v290h43v-290q0 -107 -54 -167.5t-136 -60.5q-84 0 -137.5 61t-53.5 167zM265 608q0 -27 -19 -46t-46 -19t-46 19t-19 46t19 46t46 19t46 -19t19 -46zM480 608q0 -27 -19 -46t-46 -19t-46 19 t-19 46t19 46t46 19t46 -19t19 -46z" />
<glyph unicode="&#xfd;" d="M477 506l41 -15l-263 -726l-41 15l79 220h-22l-189 491l41 15l182 -474zM294 538l-29 28l143 142l29 -30z" />
<glyph unicode="&#xfe;" d="M318 0q-70 0 -123 19v-247h-44v978h44v-296q69 54 163 54q93 0 136 -60t43 -180q0 -137 -52.5 -202.5t-166.5 -65.5zM358 465q-101 0 -163 -70v-330q55 -22 122 -22q92 0 134.5 50t42.5 175q0 114 -35 155.5t-101 41.5z" />
<glyph unicode="&#xff;" d="M477 506l41 -15l-263 -726l-41 15l79 220h-22l-189 491l41 15l182 -474zM480 608q0 -27 -19 -46t-46 -19t-46 19t-19 46t19 46t46 19t46 -19t19 -46zM265 608q0 -27 -19 -46t-46 -19t-46 19t-19 46t19 46t46 19t46 -19t19 -46z" />
<glyph unicode="&#x152;" d="M543 630h-200v-260h139v-43h-139v-284h200v-43h-214q-22 -6 -51 -6q-93 0 -156 99.5t-63 241.5q0 145 63.5 243t153.5 98l38 -2h229v-44zM276 38l24 1v593q-9 1 -24 1q-70 0 -122 -87t-52 -211t52 -210.5t122 -86.5z" />
<glyph unicode="&#x153;" d="M193 518q72 0 108 -106q33 106 112 106q50 0 89.5 -55.5t38.5 -187.5h-217v-28v-11q2 -212 89 -212q31 0 51.5 28t25.5 56l6 27l42 -9q-1 -6 -2.5 -16t-10.5 -35t-21.5 -44t-36.5 -35t-55 -16q-81 0 -112 101q-34 -101 -107 -101q-62 0 -100 73.5t-38 193.5 q0 116 37 193.5t101 77.5zM193 475q-41 0 -68 -66t-27 -162q0 -94 26.5 -158.5t68.5 -64.5q38 0 62.5 59.5t25.5 153.5v10q0 94 -23.5 161t-64.5 67zM413 475q-33 0 -56 -40t-30 -116h170q-2 27 -7 52t-14 49.5t-25.5 39.5t-37.5 15z" />
<glyph unicode="&#x178;" d="M329 253v-253h-44v253l-187 411l39 18l170 -373l170 373l40 -18zM480 784q0 -27 -19 -46t-46 -19t-46 19t-19 46t19 46t46 19t46 -19t19 -46zM265 784q0 -27 -19 -46t-46 -19t-46 19t-19 46t19 46t46 19t46 -19t19 -46z" />
<glyph unicode="&#x2c6;" d="M453 745l-30 -31l-114 114l-114 -113l-29 30l143 140z" />
<glyph unicode="&#x2dc;" d="M207 739l-37 25q3 5 9.5 13t28.5 21.5t47 13.5q23 0 54.5 -15.5t47.5 -15.5t30 8t20 16l6 8l36 -25q-4 -6 -11 -15t-30.5 -23.5t-48.5 -14.5q-29 0 -59.5 15.5t-44.5 15.5t-26 -7t-17 -13z" />
<glyph unicode="&#x2000;" horiz-adv-x="465" />
<glyph unicode="&#x2001;" horiz-adv-x="930" />
<glyph unicode="&#x2002;" horiz-adv-x="465" />
<glyph unicode="&#x2003;" horiz-adv-x="930" />
<glyph unicode="&#x2004;" horiz-adv-x="310" />
<glyph unicode="&#x2005;" horiz-adv-x="232" />
<glyph unicode="&#x2006;" horiz-adv-x="155" />
<glyph unicode="&#x2007;" horiz-adv-x="155" />
<glyph unicode="&#x2008;" horiz-adv-x="116" />
<glyph unicode="&#x2009;" horiz-adv-x="186" />
<glyph unicode="&#x200a;" horiz-adv-x="51" />
<glyph unicode="&#x2010;" d="M144 257v43h328v-43h-328z" />
<glyph unicode="&#x2011;" d="M144 257v43h328v-43h-328z" />
<glyph unicode="&#x2012;" d="M144 257v43h328v-43h-328z" />
<glyph unicode="&#x2013;" d="M114 257v43h388v-43h-388z" />
<glyph unicode="&#x2014;" d="M64 257v43h488v-43h-488z" />
<glyph unicode="&#x2018;" d="M383 745l-82 -146q23 -5 37.5 -22.5t14.5 -41.5q0 -27 -19 -46t-46 -19t-46 19t-19 46q0 21 12 38l111 193z" />
<glyph unicode="&#x2019;" d="M220 491l82 146q-23 5 -37.5 22.5t-14.5 41.5q0 27 19 46t46 19t46 -19t19 -46q0 -21 -12 -38l-111 -193z" />
<glyph unicode="&#x201a;" d="M213 -155l82 146q-23 5 -37.5 22.5t-14.5 41.5q0 27 19 46t46 19t46 -19t19 -46q0 -21 -12 -38l-111 -193z" />
<glyph unicode="&#x201c;" d="M476 745l-82 -146q23 -5 37.5 -22.5t14.5 -41.5q0 -27 -19 -46t-46 -19t-46 19t-19 46q0 21 12 38l111 193zM286 745l-82 -146q23 -5 37.5 -22.5t14.5 -41.5q0 -27 -19 -46t-46 -19t-46 19t-19 46q0 21 12 38l111 193z" />
<glyph unicode="&#x201d;" d="M136 491l82 146q-23 5 -37.5 22.5t-14.5 41.5q0 27 19 46t46 19t46 -19t19 -46q0 -21 -12 -38l-111 -193zM326 491l82 146q-23 5 -37.5 22.5t-14.5 41.5q0 27 19 46t46 19t46 -19t19 -46q0 -21 -12 -38l-111 -193z" />
<glyph unicode="&#x201e;" d="M113 -155l82 146q-23 5 -37.5 22.5t-14.5 41.5q0 27 19 46t46 19t46 -19t19 -46q0 -21 -12 -38l-111 -193zM303 -155l82 146q-23 5 -37.5 22.5t-14.5 41.5q0 27 19 46t46 19t46 -19t19 -46q0 -21 -12 -38l-111 -193z" />
<glyph unicode="&#x2022;" d="M159 301q0 69 43.5 117.5t105.5 48.5t105.5 -48.5t43.5 -117.5t-43.5 -117.5t-105.5 -48.5t-105.5 48.5t-43.5 117.5z" />
<glyph unicode="&#x2026;" d="M163 55q0 -27 -19 -46t-46 -19t-46 19t-19 46t19 46t46 19t46 -19t19 -46zM373 55q0 -27 -19 -46t-46 -19t-46 19t-19 46t19 46t46 19t46 -19t19 -46zM583 55q0 -27 -19 -46t-46 -19t-46 19t-19 46t19 46t46 19t46 -19t19 -46z" />
<glyph unicode="&#x202f;" horiz-adv-x="186" />
<glyph unicode="&#x2039;" d="M187 259v38l171 171l29 -31l-160 -159l160 -159l-29 -31z" />
<glyph unicode="&#x203a;" d="M428 297v-38l-171 -171l-29 31l160 159l-160 159l29 31z" />
<glyph unicode="&#x205f;" horiz-adv-x="232" />
<glyph unicode="&#x20ac;" d="M58 258v43h68v32q0 41 2 60h-70v43h75q17 119 73 184.5t136 65.5q69 0 111 -39.5t61 -93.5l-41 -15q-40 104 -131 104q-63 0 -106.5 -54t-59.5 -152h270v-43h-275q-2 -38 -2 -60v-32h277v-43h-273q13 -107 57.5 -170.5t106.5 -63.5q59 0 99 48t56 114l43 -10 q-17 -75 -68.5 -135t-129.5 -60q-83 0 -138 76t-69 201h-72z" />
<glyph unicode="&#x2122;" d="M418 543h-52l-42 92h-19v-194h-39v233h84l42 -98l42 98h84v-233h-40v194l-18 -4zM53 635v39h199v-39h-80v-194h-39v194h-80z" />
<glyph unicode="&#x25fc;" horiz-adv-x="510" d="M0 510h510v-510h-510v510z" />
</font>
</defs>
</svg>
