<svg xmlns="http://www.w3.org/2000/svg" width="211" height="210" viewBox="0 0 211 210" version="1.1"><g stroke="none" stroke-width="1" fill="none" fill-rule="evenodd"><g transform="translate(0.376167, 0.000000)"><rect fill="#023647" x="0" y="0" width="210" height="210"/><path d="M50 105.1C50 140.4 76 160.1 103.7 160.1 118.1 160.1 135.3 155.9 143.2 145.6L136.7 140.8C129.9 148.9 116.3 152 103.7 152 80.4 152 58.1 134.5 58.1 105.1 58.1 75.6 82.1 57.9 103.7 57.9 127.2 57.9 152.1 74.4 152.1 102.5 152.1 116 141.6 125.7 135.2 125.7 131.5 125.7 129.6 123 128.3 118.7L128.3 101C128.3 84.5 119.1 75.3 103.2 75.3 96.6 75.3 89.5 76.8 84 80.3L88.4 86.9C92.3 84.5 97.8 83.2 103.2 83.2 114.1 83.2 120.4 89.1 120.4 101L120.4 110.6C110.8 101.2 105.2 100.4 99.7 100.4 88.4 100.4 81 108.7 81 117.8 81 127.9 89.7 135.9 101.5 135.9 106.9 135.9 113.7 134.2 122.6 125.2 125.2 130.7 129.6 133.9 135.2 133.9 142.4 133.9 160 126.3 160 102.5 160 70.6 133.5 50 103.7 50 78.8 50 50 69.6 50 105.1L50 105.1ZM100.6 128.1C93.2 128.1 88 123.3 88 118 88 112.6 92.3 108.5 99.5 108.5 105.9 108.5 110.6 111.7 118.3 119.2 112 124.8 106.3 128.1 100.6 128.1L100.6 128.1 100.6 128.1Z" fill="#FFFFFF"/></g></g></svg>
