<?xml version="1.0" encoding="UTF-8" standalone="no"?>
<svg width="210px" height="210px" viewBox="0 0 210 210" version="1.1" xmlns="http://www.w3.org/2000/svg" xmlns:xlink="http://www.w3.org/1999/xlink" xmlns:sketch="http://www.bohemiancoding.com/sketch/ns">
    <!-- Generator: Sketch 3.3.3 (12081) - http://www.bohemiancoding.com/sketch -->
    <title>dsgn</title>
    <desc>Created with Sketch.</desc>
    <defs></defs>
    <g id="Page-1" stroke="none" stroke-width="1" fill="none" fill-rule="evenodd" sketch:type="MSPage">
        <g id="dsgn" sketch:type="MSLayerGroup">
            <g id="Rectangle-Copy-3-+-Group" sketch:type="MSShapeGroup">
                <rect id="Rectangle-Copy-3" fill="#8BD1A2" x="0" y="0" width="210" height="210"></rect>
                <g id="Group" transform="translate(45.000000, 28.000000)" fill="#FFFFFF">
                    <path d="M27.5,73.2393095 L27.5,18.497122 L41.3581952,18.497122 C45.5049317,18.497122 49.1842995,19.5749107 52.3964088,21.7305204 C55.6085182,23.8861302 58.0954485,26.9440423 59.8572744,30.9043486 C61.6191003,34.8646548 62.5,39.4013933 62.5,44.5147001 L62.5,47.259329 C62.5,52.4478315 61.6137289,57.0096349 59.8411602,60.9448759 C58.0685915,64.8801169 55.5440618,67.9129642 52.2674954,70.0435087 C48.990929,72.1740532 45.2363625,73.2393095 41.0036832,73.2393095 L27.5,73.2393095 Z M36.5,27.497122 L36.5,64.497122 L41.0595855,64.497122 C44.7256948,64.497122 47.5397139,63.0347557 49.5017271,60.1099791 C51.4637404,57.1852026 52.4631547,52.9860382 52.5,47.5123601 L52.5,44.6580744 C52.5,39.0904275 51.5512473,34.8384065 49.6537133,31.9018839 C47.7561793,28.9653613 45.002033,27.497122 41.3911917,27.497122 L36.5,27.497122 Z" id="D"></path>
                    <path d="M1.2055502,0.478618982 C1.2055502,0.478618982 119.794453,0.763566626 119.79445,0.478618982 C119.794446,0.763566604 110.775527,10.478619 110.775527,10.478619 L11.2055502,10.478619 L11.2055502,137.828595 L1.49378379,150 L1.2055502,0.478618982 Z" id="Path-15"></path>
                    <path d="M0.205550205,4.47861898 C0.205550205,4.47861898 118.794453,4.76356663 118.79445,4.47861898 C118.794446,4.7635666 109.775527,16.4799805 109.775527,16.4799805 L10.2055502,14.478619 L10.2044535,143.830017 L0.493783791,154 L0.205550205,4.47861898 Z" id="Path-15-Copy" transform="translate(59.500000, 79.239309) scale(-1, -1) translate(-59.500000, -79.239309) "></path>
                    <path d="M99.3085938,134.616537 L88.654068,134.616537 L72.9664669,95.0837862 L72.9664669,134.616537 L64.5,134.616537 L64.5,79.2393095 L75.3196077,79.2393095 L85.2141867,104.86627 C87.1451938,109.867579 91.0072079,119.870196 91.0072079,119.870196 L91.0072079,79.2393095 L99.3085938,79.2393095 L99.3085938,134.616537 Z" id="N"></path>
                    <path d="M24.5575114,124.501059 C24.4939053,124.386479 24.1291115,123.231908 23.9390087,122.573758 C22.8657619,118.858098 22.3045448,114.641509 22.2553434,109.923902 L22.2553434,105.314205 C22.2553434,96.4182529 23.7804541,89.4700797 26.8307214,84.4694765 C29.8809887,79.4688733 34.1377852,76.9686092 39.6012386,76.9686092 C44.2924725,76.9686092 48.018376,78.5860307 50.7790609,81.8209223 C53.5397459,85.0558138 55.199993,89.7193792 55.7598522,95.8117582 L48.5782462,95.8117582 C47.7674156,88.7219543 44.8233727,85.1771055 39.7460291,85.1771055 C36.4640959,85.1771055 33.9688989,86.8282233 32.2603631,90.1305084 C30.5518273,93.4327935 29.6686144,98.2783188 29.6106979,104.66723 L29.6106979,109.196055 C29.6106979,112.384699 30.1178345,117.095173 30.3345033,117.690298 C30.4455354,117.99527 24.5705173,124.524488 24.5575114,124.501059 Z" id="G-Copy"></path>
                    <path d="M47.4180307,136.325504 C44.7152623,137.754248 41.6457355,138.468609 38.2093585,138.468609 C34.676454,138.468609 31.5490116,137.349893 28.8269377,135.112426 C26.6432536,133.3175 23.4779333,127.867081 23.4779333,127.867081 C23.4779333,127.867081 29.1501035,121.772896 29.1501032,121.962929 C29.1501029,122.152961 29.9593741,124.101186 30.4630697,125.023658 C32.3839659,128.541603 35.0529097,130.300549 38.4699813,130.300549 C42.2152462,130.300549 44.8793637,129.11444 46.4624138,126.742186 L46.4624138,115.217943 L37.7749871,115.217943 L37.7749871,107.454242 L53.7598522,107.454242 L53.7598522,130.017497 C52.2347186,132.794113 50.1207992,134.896761 47.4180307,136.325504 Z" id="G-Copy-2"></path>
                    <path d="M83.9180826,44.5088414 C84.1277778,44.5088414 88.0814726,46.6481461 89.5901794,47.8730402 C91.5281632,49.4464572 92.9487028,51.2515907 93.8518409,53.2884949 C94.754979,55.3253991 95.2065413,57.7098829 95.2065413,60.4420179 C95.2065413,64.8817372 93.8941884,68.4127247 91.2694434,71.0350864 C88.6446983,73.657448 85.0839417,74.9686092 80.5870667,74.9686092 C77.6142371,74.9686092 74.8813447,74.2550936 72.3883072,72.828041 C69.8952698,71.4009883 67.9573151,69.4311974 66.5743849,66.918609 C65.1914547,64.4060206 64.5,61.478777 64.5,58.1367905 L71.6403998,58.1367905 C71.6403998,61.1616542 72.4118186,63.5034491 73.9546795,65.1622453 C75.4975404,66.8210415 77.708314,67.6504272 80.5870667,67.6504272 C83.0706964,67.6504272 84.9380945,66.9978958 86.1893171,65.6928135 C87.4405396,64.3877312 88.0661415,62.6618771 88.0661415,60.5151997 C88.0661415,58.1733697 87.4311321,56.3682362 86.1610941,55.099745 C85.0214525,53.9614912 80.6480874,51.4900738 80.3378438,51.3348848 C80.0276003,51.1796959 79.5645208,50.8034437 79.5645208,50.8034437 C79.5645208,50.8034437 83.7083874,44.5088414 83.9180826,44.5088414 Z" id="S-Copy"></path>
                    <path d="M80.2348888,47.6078317 C80.2348882,47.6078312 76.021934,45.4282179 74.5166688,44.2084864 C70.7724089,41.1592287 68.900307,37.1830562 68.900307,32.2798497 C68.900307,27.9864948 70.25029,24.4494088 72.9502966,21.6684858 C75.6503031,18.8875627 79.1546145,17.497122 83.4633357,17.497122 C86.323273,17.497122 88.8727183,18.1801455 91.1117481,19.546213 C93.350778,20.9122804 95.1099893,22.8576777 96.3894349,25.3824631 C97.6688805,27.9072486 98.3085938,30.7064252 98.3085938,33.780077 L91.1964169,33.780077 C91.1964169,30.999154 90.5237773,28.8220166 89.1784778,27.2485996 C87.8331784,25.6751826 85.909335,24.8884859 83.4068899,24.8884859 C81.0737832,24.8884859 79.2628303,25.5349188 77.973977,26.8278041 C76.6851237,28.1206894 76.0407067,29.9258229 76.0407067,32.2432588 C76.0407067,34.1947838 76.7368652,35.823063 78.1292031,37.1281453 C79.521541,38.4332276 81.9479971,39.3915267 85.0155966,40.9336 C85.4875071,41.170828 80.2348893,47.6078321 80.2348888,47.6078317 Z" id="S-Copy-3"></path>
                </g>
            </g>
        </g>
    </g>
</svg>