<svg xmlns="http://www.w3.org/2000/svg" width="211" height="210" viewBox="0 0 211 210" version="1.1"><g stroke="none" stroke-width="1" fill="none" fill-rule="evenodd"><g transform="translate(0.820281, 0.000000)"><rect fill="#8BD1A2" x="0" y="0" width="210" height="210"/><path d="M105.6 79.3C106.4 74.2 108.7 69.7 112.6 65.9 113.6 64.9 114.6 64 115.7 63.2 119.4 60.6 123.7 59.4 128.4 59.4L133.7 59.4C134.9 59.4 136 59 136.8 58.1 137.4 57.5 137.8 56.9 138 56.1 138.1 55.8 138.2 55.4 138.3 55L138.3 54.5C138.3 53.4 137.9 52.5 137.2 51.7 136.5 50.9 135.6 50.4 134.6 50.3 133.1 50.1 131.7 50 130.3 50 126.8 50 123.4 50.5 120.2 51.6 114.8 52.9 110.1 55.7 105.9 59.9 103.2 62.6 101.1 65.4 99.6 68.6 97 64.4 93.7 61 89.5 58.3 85.1 55.4 80.2 53.7 74.9 53.2 73.9 53.1 73 53.4 72.3 54 71.5 54.6 71.1 55.4 71 56.4 70.9 57.4 71.2 58.2 71.8 58.9 72.5 59.7 73.2 60.1 74.2 60.2 79.8 60.8 84.7 62.9 88.9 66.7 92.8 70.2 95.4 74.5 96.7 79.6 96.6 80.5 96.5 81.5 96.5 82.4L96.5 155.8C96.5 157.1 97 158.1 97.8 159 98.7 159.8 99.7 160.3 101 160.3 102.2 160.3 103.2 159.8 104.1 159 104.9 158.1 105.4 157.1 105.4 155.8L105.4 126.8 123.2 126.8C124.5 126.8 125.5 126.4 126.4 125.6 127.2 124.7 127.7 123.7 127.7 122.5 127.7 121.2 127.2 120.2 126.4 119.3 125.5 118.4 124.5 118 123.2 118L105.4 118 105.4 82.4C105.4 81.4 105.4 80.3 105.6 79.3Z" fill="#FFFFFF"/></g></g></svg>
