<?xml version="1.0" encoding="UTF-8" standalone="no"?>
<svg width="210px" height="210px" viewBox="0 0 210 210" version="1.1" xmlns="http://www.w3.org/2000/svg" xmlns:xlink="http://www.w3.org/1999/xlink" xmlns:sketch="http://www.bohemiancoding.com/sketch/ns">
    <!-- Generator: Sketch 3.3.3 (12081) - http://www.bohemiancoding.com/sketch -->
    <title>github</title>
    <desc>Created with Sketch.</desc>
    <defs></defs>
    <g id="Page-1" stroke="none" stroke-width="1" fill="none" fill-rule="evenodd" sketch:type="MSPage">
        <g id="github" sketch:type="MSLayerGroup">
            <rect id="Rectangle-Copy-6" fill="#E47B63" sketch:type="MSShapeGroup" x="0" y="0" width="210" height="210"></rect>
            <g id="5151e0c8492e5103c096af88a5006e1e" transform="translate(33.000000, 50.000000)" fill="#FFFFFF" sketch:type="MSShapeGroup">
                <path d="M31.8621875,53.8832487 C31.446873,53.0529442 31.0717773,52.1933249 30.7396934,51.3069036 C24.8912168,51.2560914 6.87936133,52.0863959 0.709414063,53.610203 C0.39325,53.6236041 0.203048828,53.4817766 0.152216797,53.2729442 C0.0932851563,53.0292132 0.243267578,52.777665 0.489607422,52.7159645 C6.60341602,51.2055584 24.1809648,50.3671574 30.4073301,50.3833503 C29.0060977,46.2644924 28.3871758,41.5456599 28.3871758,36.2779442 C28.3871758,26.9206853 31.3021973,23.3909137 35.2187773,18.4043401 C32.2235977,7.74020305 36.2932324,0.450609137 36.2932324,0.450609137 C36.2932324,0.450609137 42.5866289,-0.853477157 54.4843965,7.66258883 C60.933082,4.90142132 78.1260391,4.67137056 86.260002,7.04949239 C91.2538301,3.75005076 100.384324,-0.931091371 104.070764,0.378299492 C105.067295,1.98502538 107.216205,6.66365482 105.372846,16.9475381 C106.626609,19.2025381 113.126406,24.0070812 113.152939,37.587335 C113.045689,42.5954061 112.525918,46.8239848 111.561506,50.4017766 C127.073654,50.2705584 136.198842,51.5506345 142.483859,52.7075888 C142.730479,52.758401 142.89666,52.9968274 142.853648,53.2458629 C142.810916,53.4655838 142.617922,53.6236041 142.403701,53.6236041 C136.037967,52.4560406 126.897139,51.181269 111.29366,51.3230964 C111.020229,52.2310152 110.714957,53.0934264 110.382594,53.9156345 C115.692865,54.0923604 130.277748,54.6602284 142.173002,58.2969289 C142.419621,58.3720305 142.553404,58.6288832 142.478553,58.8754061 C142.419621,59.0708376 142.23752,59.199264 142.039219,59.199264 C129.844,55.4930457 114.942674,54.9868782 109.986551,54.8232741 C105.67309,64.2958376 96.8266406,67.8306345 82.5255234,69.3008376 C87.1604551,72.2172335 88.4893496,75.8751523 88.4893496,85.7737563 C88.4893496,95.671802 88.3555664,97.0001777 88.3876855,99.2761168 C88.4360039,103.012487 93.9118984,104.800964 93.7085703,106.003426 C93.5049629,107.203655 89.1272637,107.010457 87.0805762,106.295736 C81.2829316,104.27665 81.8613555,99.4556345 81.8613555,99.4556345 L81.6686406,86.2210152 C81.6686406,86.2210152 82.0652422,79.0972589 79.4342656,79.0972589 L79.4342656,100.76 C79.4342656,105.467944 82.7296895,106.898223 82.7296895,108.638959 C82.7296895,111.630457 76.7072109,108.355305 74.852959,106.488376 C72.0225645,103.649594 72.3443145,97.6297462 72.4138594,92.868198 C72.4780977,88.2696954 72.371127,78.2136294 72.371127,78.2136294 L70.4504023,78.2541117 C70.4504023,78.2541117 71.2380195,100.222284 69.4376719,104.225558 C67.1097324,109.364848 60.0876504,111.132665 60.0876504,108.791675 C60.0876504,107.216777 61.8181738,107.717919 62.7747656,104.188426 C63.591709,101.186041 63.31325,78.7893147 63.31325,78.7893147 C63.31325,78.7893147 61.0629551,80.1204822 61.0629551,84.3141624 C61.0629551,86.2341371 61.0093301,97.2009137 61.0093301,100.465736 C61.0093301,104.571193 55.1767734,106.908832 52.3743086,106.908832 C50.9543633,106.908832 49.1889277,106.839594 49.1889277,106.087183 C49.1889277,104.188426 54.5232187,103.073909 54.5232187,99.1239594 C54.5232187,95.6988832 54.4480879,86.8882741 54.4480879,86.8882741 C54.4480879,86.8882741 51.7581797,87.3483756 47.9217578,87.3483756 C38.2502656,87.3483756 35.1905684,81.1783249 33.7357109,77.7261675 C31.8415195,73.2298477 29.3848242,71.1169543 26.7753535,69.4295431 C25.1733066,68.393198 24.8035176,67.1692386 26.6574902,66.8210914 C35.2198945,65.2090609 37.4087441,76.5264975 43.1259512,78.3286548 C47.2061992,79.6171066 52.4519531,79.0598477 55.0614238,77.3727157 C55.4071934,73.9149746 57.8988008,70.9265482 59.9750937,69.3519289 C45.4329434,67.9565482 36.8113281,62.9085533 32.3425781,54.7936802 C17.1303945,55.1580203 8.49844531,57.3164213 2.17041602,58.8963452 C1.70957617,59.0116497 1.25962891,59.1238832 0.825601562,59.2338832 C0.506644531,59.2444924 0.319236328,59.1051777 0.265611328,58.8963452 C0.203886719,58.6501015 0.356662109,58.3982741 0.60328125,58.3365736 C1.03898438,58.2293655 1.48641797,58.1199239 1.94446484,58.0021066 C8.25378125,56.4272081 16.8323848,54.2822081 31.8621875,53.8832487 Z" id="XMLID_1_"></path>
            </g>
        </g>
    </g>
</svg>