<?xml version="1.0" encoding="UTF-8" standalone="no"?>
<svg width="210px" height="210px" viewBox="0 0 210 210" version="1.1" xmlns="http://www.w3.org/2000/svg" xmlns:xlink="http://www.w3.org/1999/xlink" xmlns:sketch="http://www.bohemiancoding.com/sketch/ns">
    <!-- Generator: Sketch 3.3.3 (12081) - http://www.bohemiancoding.com/sketch -->
    <title>treehouse</title>
    <desc>Created with Sketch.</desc>
    <defs></defs>
    <g id="Page-1" stroke="none" stroke-width="1" fill="none" fill-rule="evenodd" sketch:type="MSPage">
        <g id="treehouse" sketch:type="MSLayerGroup">
            <rect id="Rectangle-Copy-4" fill="#023647" sketch:type="MSShapeGroup" x="0" y="0" width="210" height="210"></rect>
            <path d="M143.348402,70.0728555 C139.70135,68.0115733 133.881773,71.3262023 130.343784,77.475585 L123.943993,88.6099986 C121.605692,93.2390494 121.928517,98.7501981 124.890656,103.005382 L125.078244,103.273676 C128.044745,107.527988 132.023347,111.46122 133.340822,112.864201 C134.112985,113.688277 134.701923,114.706485 135.029111,115.871273 C136.111011,119.736886 133.855598,123.746898 129.990421,124.828798 C126.120882,125.909826 122.111742,123.653104 121.029842,119.787491 C120.759367,118.816834 120.698292,117.837889 120.820442,116.898206 C121.029842,115.301094 120.515067,112.699734 118.224753,110.145489 C115.93444,107.592117 111.253475,112.415299 109.744049,117.375464 L109.674249,117.604059 C108.160461,122.564224 107.205073,126.893134 107.488636,127.309317 C107.658774,127.557107 107.820186,127.817985 107.964149,128.090641 C110.084325,132.08582 108.570536,137.045985 104.574485,139.169215 C100.578433,141.293753 95.6182683,139.776039 93.4937298,135.780859 C91.3691914,131.785244 92.8873421,126.825515 96.8833938,124.701413 C97.0622564,124.606311 97.241119,124.518188 97.4243441,124.437918 C97.7297192,124.303117 98.5978571,122.217841 99.3482074,119.755209 C100.098558,117.291267 100.709308,115.294987 100.709308,115.294987 C100.787833,115.0328 100.857633,114.773668 100.923071,114.516716 L104.96711,100.080325 L100.639508,108.956271 C100.129095,107.270601 99.2827699,107.211271 97.4243441,108.53878 C96.3075436,109.339735 94.4578428,110.916343 93.5504424,111.562866 C91.8534291,112.777823 90.435616,115.137064 89.6809032,116.582361 C89.2402905,117.433049 88.6208152,118.209138 87.8268399,118.850862 C84.733826,121.363227 80.188099,120.889895 77.6752979,117.794264 C75.1624968,114.698196 75.6380095,110.152469 78.7310234,107.640541 C79.6384238,106.903714 80.6723367,106.423839 81.7411497,106.191318 C83.560313,105.796075 89.7463407,102.017276 93.4719173,99.3509146 C94.1393801,98.8736569 94.6977804,98.4221379 95.1558431,98.0033377 L105.10671,90.4461757 L96.4384186,95.128449 C96.4384186,95.128449 95.5571932,95.0394539 94.4752928,95.159859 C91.3037539,95.5114767 88.0362399,95.9586331 87.4211272,96.7438834 C87.054677,97.2080536 86.6227893,97.6294713 86.1167391,97.9911227 C83.2244003,100.074654 79.1890861,99.4185334 77.1081726,96.5257583 C75.0228967,93.6334196 75.6816345,89.5989778 78.5739733,87.5154469 C79.7649363,86.656034 81.1522119,86.2634088 82.517675,86.3013626 C84.838526,86.3654914 90.9416662,87.6031332 96.0457935,86.697914 L97.3589065,86.4658289 C102.467396,85.561046 108.579261,81.1152203 111.0179,76.5363383 C111.0179,76.5363383 113.399826,72.3465915 116.344515,67.177463 C119.284841,62.0087707 119.066716,56.3471157 115.860277,54.5323149 L110.045062,51.245606 C107.113461,49.587419 102.310346,49.5843652 99.3743824,51.2390622 L59.3397023,73.8106471 C56.4037386,75.4657804 54,79.5765659 54,82.9457261 L54,127.054547 C54,130.423707 56.4037386,134.534056 59.3397023,136.18919 L99.3743824,158.760338 C102.310346,160.415908 107.113461,160.412418 110.045062,158.754667 L149.948867,136.195297 C152.880468,134.53711 155.279844,130.423707 155.279844,127.054547 L155.279844,82.9457261 C155.279844,79.5765659 152.880468,75.4622903 149.948867,73.8045396 C149.948867,73.8045396 146.991091,72.1337014 143.348402,70.0728555" id="Fill-36-Copy" fill="#FFFFFF" sketch:type="MSShapeGroup"></path>
        </g>
    </g>
</svg>