<svg xmlns="http://www.w3.org/2000/svg" width="211" height="210" viewBox="0 0 211 210" version="1.1"><g stroke="none" stroke-width="1" fill="none" fill-rule="evenodd"><g transform="translate(0.932053, 0.000000)"><rect fill="#5CACC1" x="0" y="0" width="210" height="210"/><path d="M134.2 83.1C133.5 80 133.5 80 131.7 80.4 130.9 80.5 130.1 80.6 129.4 80.6 127.8 80.7 126.2 80.7 124.3 80.7 125.6 82.5 126.6 84.3 128.2 84.1 130.1 84 132.1 83.5 134.2 83.1L134.2 83.1 134.2 83.1ZM122.5 104.4C122.3 104.3 122.2 104.2 122.1 104.1 119.6 106.5 117.1 108.9 114.5 111.4 116 112.4 117.3 113.4 118.9 114.4 120.1 111 121.3 107.7 122.5 104.4L122.5 104.4 122.5 104.4ZM118.2 103.7C118.1 103.6 118.1 103.5 118.1 103.4 114 103.9 109.9 104.4 105.5 105 107.9 106.7 109.9 108.1 112 109.6 114.1 107.5 116.1 105.6 118.2 103.7L118.2 103.7 118.2 103.7ZM113.5 113.9C113.3 115.9 113.1 117.6 113 119.4 118.6 120.3 122.9 122.9 126.6 127.4 126.8 126.8 127 126.4 127.1 126 127.1 125.5 127 125 127 124.6 127.2 123.7 126.8 123.3 126 123 123.9 122.2 121.8 121.3 119.7 120.6 118.3 120.1 117.6 119.3 117.8 117.8 117.8 117.4 117.6 116.8 117.3 116.5 116.2 115.6 114.9 114.9 113.5 113.9L113.5 113.9 113.5 113.9ZM126.9 109.8C125.8 112.1 124.9 114 124 116 123.9 116.3 124.2 117 124.5 117.2 126 118.3 127.5 119.3 129 120.3 130 121 131.2 120.4 131.5 119.2 132 117.6 130.9 116.5 130.3 115.4 129.3 113.6 128.2 111.9 126.9 109.8L126.9 109.8 126.9 109.8ZM132.7 108.5L133 108.4C133.7 102.9 134.5 97.5 135.2 92 133.2 93.6 131.4 95.2 129.7 97 129.4 97.2 129.4 97.7 129.3 98.1 129 100.8 130.3 103 131.3 105.3 131.8 106.4 132.3 107.5 132.7 108.5L132.7 108.5 132.7 108.5ZM112.6 123.6C112.2 128.1 111.8 132.3 111.4 136.9 115.3 134.4 119 132 122.8 129.5 120 126.3 116.8 124.3 112.6 123.6L112.6 123.6 112.6 123.6ZM110.6 94.3C112.6 94.1 114.3 93.8 116.1 93.6 119.7 93.3 123.4 93 126.9 94.6 127.1 94.7 127.5 94.7 127.7 94.6 130.2 92.2 132.8 89.8 135.3 87.4 134.5 86.3 133.8 86.3 132.7 86.7 131 87.3 129.2 87.8 127.4 88.2 126.6 88.4 125.6 88.4 124.9 88.1 121.8 86.9 118.6 85.7 116.4 83.3 114.5 86.9 112.6 90.5 110.6 94.3L110.6 94.3 110.6 94.3ZM109.6 123.6C104.5 123.4 97.2 127.2 94.9 134.8 92.8 142 95.9 149.8 102.5 153.4 109.2 157.1 117.3 155.7 122.4 149.9 127.1 144.5 127.2 136.7 124.3 132.2 123.9 132.4 123.5 132.7 123.1 132.9 119 135.6 114.9 138.3 110.7 140.9 110.2 141.2 109.3 141.3 108.8 141 108.4 140.8 108.2 139.9 108.2 139.3 108.2 138.2 108.4 137.1 108.5 135.9 108.9 131.9 109.2 127.7 109.6 123.6L109.6 123.6 109.6 123.6ZM147.6 96.4C143.2 102.6 143.8 112.6 151.4 118.1 158.8 123.5 169 121.7 174.1 114.1 179.1 106.6 177 96.5 169.3 91.6 162.9 87.6 152.7 88.9 149.7 94.1 151.7 95.7 153.7 97.2 155.7 98.8 157.7 100.4 159.7 102 161.8 103.6 162.5 104.2 162.7 104.8 162.2 105.6 161.7 106.3 161 106.2 160.3 105.7 159.3 105 158.3 104.3 157.3 103.6 154.1 101.2 150.9 98.8 147.6 96.4L147.6 96.4 147.6 96.4ZM114.9 51C115.8 51.6 116.6 52.2 117.5 52.7 117.8 52.9 118.3 53 118.7 52.9 120.4 52.7 122 52.5 123.6 52.3 123.7 52.4 123.8 52.5 123.8 52.7 122.8 53.6 121.7 54.6 120.6 55.4 119.9 55.9 119.7 56.4 120.2 57.2 120.3 57.4 120.3 57.6 120.4 57.8 122 62.1 121 64.5 116.7 66.3 116.4 66.4 116.2 66.6 115.5 66.9 116 67.1 116.2 67.2 116.4 67.3 118.5 68.3 119.7 70 120.7 72 121 72.6 121.3 73.2 121.7 73.8 123.3 76.1 125.4 76.9 128.1 76.5 131 76.1 133.9 76 136.7 75.7 137.3 75.6 138 75.4 138.5 75 142.3 71.6 146.1 68.2 149.9 64.8 150.2 64.5 150.5 64.3 151 63.9 152.2 66.3 153.4 68.6 154.7 71 150.5 74.7 146.4 78.3 142 82.2 142.9 82.3 143.6 82.3 144.2 82.5 144.7 82.7 145.4 83 145.5 83.4 145.6 83.7 145.1 84.4 144.7 84.7 143.7 85.3 142.6 85.8 141.6 86.3 141.3 86.4 141.1 86.6 140.6 86.9 142.5 88.4 144.2 89.8 146.1 91.2 151.2 86.2 157.3 84.1 164.4 85.3 169.3 86.2 173.3 88.6 176.5 92.4 182.8 100.1 182.4 111.7 175.7 118.9 168.5 126.5 157.2 127.6 148.7 121.3 140.5 115.4 137.9 103.6 144.1 93.7 142.3 92.4 140.5 91.1 138.6 89.7 138.2 92.1 137.9 94.2 137.6 96.5 136.9 102 136.1 107.6 135.4 113.1 135.1 115.1 136.3 116.6 137 118.2 137.1 118.4 137.7 118.5 138 118.5 139.2 118.5 140.3 118.5 141.5 118.5 142.1 118.5 142.9 118.6 143.5 118.7 144.3 118.8 144.9 119.1 144.9 120 145 120.9 144.6 121.4 143.7 121.6 141.5 122.3 139.3 123.1 137.1 123.7 136.4 123.9 135.9 124.1 136 125 136.3 127.6 133.5 130.1 130.3 129.2 129.4 129 128.8 129.1 128.1 129.9 131.2 136.3 131.4 142.8 128 149.1 125.2 154.2 121 157.5 115.4 159 104 161.9 92.4 154.6 90.4 143.3 88.2 130.8 97.1 119.6 110 119.2 110.2 116.9 110.5 114.6 110.6 112.3 110.6 112.1 110.4 111.7 110.2 111.6 108 109.9 105.7 108.3 103.4 106.7 101.3 109.1 98.4 109 95.7 109.2 95.4 109.2 94.9 108.7 94.8 108.5 94.7 108 94.8 107.3 95 107.1 96.3 105.9 97.7 104.9 99 103.8 99.3 103.5 99.7 103.2 100.1 102.9 97.1 98 98.1 92.8 99.1 87.5 95.4 89 91.6 89.7 87.7 89.7 83.9 89.8 80 89.8 76.3 88.6 89.3 83.4 100.5 75.2 111.6 66.3 108.9 65.1 107.5 63.1 106.8 60.7 105.5 56.4 107.2 53.1 111.4 51.6 111.8 51.4 112.3 51.2 112.8 51L114.9 51ZM36.1 143.9C36.4 141.3 36.6 139.2 36.9 137 37 136.1 36.8 135.6 35.9 135.3 33.9 134.4 32 133.5 30 132.3 32 131.9 34 131.5 36 131.1 37.1 130.9 37.7 130.6 37.8 129.3 37.9 127.2 38.2 125.1 38.6 122.7 39.8 124.9 40.9 126.7 41.9 128.6 42.3 129.6 42.9 129.7 43.9 129.5 46 129.1 48.1 128.7 50.6 128.2 48.8 130.1 47.4 131.7 45.9 133.2 45.2 133.9 45.1 134.4 45.6 135.3 46.8 137.1 47.8 139 49 141.3 46.7 140.2 44.6 139.3 42.7 138.4 41.9 138 41.4 138.1 40.9 138.7 39.4 140.4 37.9 142 36.1 143.9ZM62.5 155.6C62.7 153.5 62.9 151.5 63.2 149.5 63.4 148.4 63.2 147.7 62 147.3 60.1 146.5 58.3 145.6 56.4 144.4 58.5 144 60.5 143.6 62.7 143.2 63.6 143 64.1 142.7 64.1 141.6 64.3 139.5 64.6 137.4 64.9 134.8 65.8 136.3 66.4 137.5 67.2 138.8 67.8 139.8 68.2 141.2 69.1 141.6 69.9 142.1 71.2 141.4 72.3 141.2 73.7 140.9 75.2 140.6 76.9 140.3 75.3 142.1 73.8 143.8 72.3 145.3 71.6 146 71.5 146.6 72 147.4 73.1 149.3 74.1 151.2 75.4 153.4 73.1 152.4 71.2 151.5 69.2 150.6 68.4 150.2 67.7 150.3 67.1 151 65.7 152.6 64.2 154.2 62.7 155.7 62.6 155.7 62.5 155.6 62.5 155.6ZM80.1 106.8C78.7 108.5 77.2 110.1 75.7 111.6 75.1 112.2 75 112.7 75.5 113.5 76.6 115.4 77.6 117.3 78.9 119.6 76.5 118.5 74.5 117.6 72.4 116.6 71.7 116.3 71.3 116.4 70.8 117 69.3 118.6 67.8 120.2 66.1 121.6 66.3 119.5 66.5 117.3 66.8 115.2 66.9 114.4 66.7 114 66 113.7 63.9 112.7 61.9 111.8 59.5 110.7 62 110.2 64.1 109.6 66.2 109.3 67.3 109.2 67.6 108.7 67.7 107.7 67.8 105.9 68.1 104.2 68.3 102.4 68.3 102.1 68.4 101.8 68.5 101.1 69.7 103.3 70.9 105.1 71.8 107 72.3 107.9 72.8 108 73.7 107.8 75.8 107.4 77.9 107 80 106.6 80 106.7 80.1 106.7 80.1 106.8ZM149.5 63.2C147.3 65.2 145.2 67 143.2 68.8 141.5 70.4 139.8 71.9 138.1 73.4 137.8 73.7 137.4 74.1 137 74.1 135 74.1 133 74.1 131 74.1 131 74 130.9 73.8 130.9 73.7 132.6 72.3 134.4 70.8 136.1 69.3 138.5 67.3 140.9 65.2 143.3 63.2 143.8 62.9 144.5 62.7 145.1 62.7 146.5 62.8 147.8 63 149.5 63.2Z" fill="#FFFFFF"/></g></g></svg>
